<?xml version="1.0" encoding="utf-8"?>
<!-- Generator: Adobe Illustrator 27.2.0, SVG Export Plug-In . SVG Version: 6.00 Build 0)  -->
<svg version="1.1" id="Layer_1" xmlns="http://www.w3.org/2000/svg" xmlns:xlink="http://www.w3.org/1999/xlink" x="0px" y="0px"
	 viewBox="0 0 970.96 137.02" style="enable-background:new 0 0 970.96 137.02;" xml:space="preserve">
<style type="text/css">
	.st0{fill:#1D1E1C;}
	.st1{fill:#B0B0B0;}
	.st2{fill:#00833E;}
	.st3{fill:#CE0E2D;}
	.st4{fill:#9F7227;}
</style>
<g>
	<g>
		<path class="st0" d="M175.43,45.37c0.31,0,0.82-0.28,1.51-0.85c0.59-0.49,1.03-0.92,1.32-1.28c-1.68-1.68-2.63-2.52-2.83-2.52
			c-0.23,0-0.71,0.36-1.42,1.09c-0.71,0.72-1.14,1.23-1.3,1.51C173.98,44.68,174.89,45.37,175.43,45.37z"/>
		<path class="st0" d="M212.33,44.98c-1.27,0-2.65,0.8-4.15,2.39c-1.5,1.59-2.25,3.02-2.25,4.29c0,0.85,0.44,1.54,1.32,2.06
			c0.75,0.41,1.58,0.62,2.48,0.62c0.9,0,1.61-0.13,2.11-0.39c0.5-0.26,1.07-0.75,1.69-1.48c0.18,0.18,0.36,0.6,0.52,1.26
			s0.27,1.17,0.29,1.53v0.12l-9.16-0.03v-0.01h-4.66h-1.79h-2.87h-1.79h-2.87h-1.79h-2.72h-1.94h-0.04c-0.26,0-0.56-0.5-0.89-1.51
			c-0.67-2.2-1.51-5.43-2.52-9.7c-0.41,0.72-0.83,1.46-1.24,2.21c-0.47,0.85-0.79,1.62-0.97,2.29l1.55,6.29l-0.08,0.35h-7.64
			c-0.36,0-0.54-0.57-0.54-1.71c0-0.67,0.03-1.27,0.08-1.79c-0.57,0.08-1.07,1.07-1.51,2.99c-0.34,1.53-0.5,2.76-0.5,3.69
			c0,0.78,0.28,1.16,0.85,1.16h8.23c0.21,0,0.49-0.35,0.85-1.05c0.47-0.8,0.75-1.25,0.85-1.36c0.15,0.44,0.31,0.89,0.47,1.36
			c0.21,0.59,0.44,0.94,0.7,1.05h2.37h1.94h2.72h1.79h2.87h1.79h2.87h1.79h3.06h1.59h10.75c0.65-1.53,0.97-3.47,0.97-5.82
			c0-1.58-0.4-3.34-1.2-5.28C214.75,46.16,213.63,44.98,212.33,44.98z M210.94,50.45c-0.54,0-1.2-0.32-1.98-0.97
			c0.57-0.65,1-0.97,1.28-0.97c0.52,0,1.18,0.56,1.98,1.67C211.8,50.36,211.38,50.45,210.94,50.45z"/>
		<path class="st0" d="M206.14,44.24c0.76,0.62,1.25,0.94,1.46,0.97c1.81-1.06,2.73-1.78,2.75-2.17c-1.6-1.66-2.54-2.48-2.79-2.48
			c-0.16,0-0.62,0.38-1.4,1.13c-0.78,0.75-1.16,1.2-1.16,1.36C205,43.22,205.38,43.62,206.14,44.24z"/>
		<path class="st0" d="M234.68,45.56c0.75-0.88,1.15-1.44,1.2-1.67c-1.47-0.67-2.63-1.27-3.45-1.78c-1.47,1.34-2.44,2.37-2.91,3.06
			c1.68,0.72,2.94,1.31,3.76,1.75C233.47,46.9,233.93,46.44,234.68,45.56z"/>
		<path class="st0" d="M246.01,55.73c-1.19-0.57-1.82-1.02-1.9-1.36c-0.34-1.34-0.5-3.01-0.5-5.01c0-0.23,0.44-0.91,1.32-2.02
			l1.71-2.1c-0.49-0.21-1.27-0.63-2.33-1.28c-1.19-0.7-1.89-1.18-2.1-1.44c-0.26-0.36-0.38-0.8-0.35-1.32l0.04-0.43
			c-0.34,0.16-0.93,0.88-1.77,2.17c-0.84,1.29-1.26,2.08-1.26,2.37c0,0.13,0.19,0.34,0.56,0.62c0.37,0.29,0.59,0.48,0.64,0.58
			c0.18,0.39,0.44,1.71,0.78,3.96c0.34,2.25,0.5,3.65,0.5,4.19c0,0.34-0.04,0.56-0.12,0.66h-2.72h-0.93c-1.4,0-2.1-0.53-2.1-1.59
			c0-0.36,0.06-0.92,0.19-1.69c0.13-0.76,0.19-1.33,0.19-1.69v-1.75c-0.52,0.52-1.03,1.03-1.55,1.55c-0.6,0.62-1,1.2-1.2,1.75
			c-0.18,0.36-0.27,0.93-0.25,1.71s-0.05,1.34-0.17,1.71h-5.32h-1.59h-0.47c-0.75,0-1.16-0.21-1.24-0.62
			c-0.34-1.37-0.62-3.63-0.85-6.79c-0.15-2.35-0.31-4.71-0.47-7.06c-0.26,0.23-0.75,0.82-1.47,1.75c-0.78,1.01-1.16,1.6-1.16,1.79
			l1.36,15.21h4.31h1.59h4.42l1.4-2.52c0.59,1.68,1.4,2.52,2.41,2.52h1.71h1.2h3.65c1.34,0,2.24,0.17,2.68,0.5
			c0.67,0.62,1.15,1.1,1.44,1.44c1.01-1.6,1.51-2.92,1.51-3.96C247.8,56.92,247.2,56.3,246.01,55.73z"/>
		<path class="st0" d="M250.71,47.43l1.75,12.49c1.5-1.76,2.25-3.96,2.25-6.6c0-2.28-0.38-5.94-1.13-10.98
			C252.16,44.31,251.2,46,250.71,47.43z"/>
		<path class="st0" d="M268.52,48.43c0.83,0.65,1.34,0.98,1.55,1.01c1.91-1.09,2.87-1.81,2.87-2.17c0-0.13-0.45-0.61-1.34-1.44
			c-0.89-0.83-1.42-1.24-1.57-1.24s-0.65,0.41-1.49,1.22c-0.84,0.81-1.26,1.3-1.26,1.45C267.28,47.4,267.69,47.79,268.52,48.43z"/>
		<path class="st0" d="M305.46,50.14c-0.1-0.44-0.19-0.88-0.27-1.32c-0.16-0.41-0.5-0.62-1.05-0.62c-1.03,0-2.27,0.51-3.71,1.53
			c-1.44,1.02-2.36,2.02-2.77,3.01c-0.67,1.58-1.1,2.44-1.28,2.6h-1.16h-1.75h-2.91h-1.79h-2.87h-1.79h-3.1h-1.24
			c-0.67,0-1.4-0.59-2.17-1.78c-0.49-0.88-1-1.76-1.51-2.64l-2.37,3.8c1.55,2.43,2.38,4.36,2.48,5.78
			c-1.11,0.91-2.98,1.36-5.59,1.36c-1.27,0-2.37-0.21-3.3-0.62c-1.22-0.54-1.82-1.36-1.82-2.44c0-0.75,0.26-1.76,0.78-3.03
			c0.52-1.27,0.78-1.88,0.78-1.82c0-0.1-0.02-0.25-0.06-0.45c-0.04-0.19-0.06-0.33-0.06-0.41c-2.54,2.87-3.8,5.8-3.8,8.77
			c0,2.92,2.28,4.38,6.83,4.38c0.62,0,1.62-0.21,3.01-0.64c1.38-0.43,2.3-0.81,2.76-1.16c0.45-0.35,0.85-0.89,1.18-1.61
			c0.18-0.36,0.44-0.99,0.78-1.88c0.34-0.89,0.57-1.34,0.7-1.34h1.09h1.55h3.1h1.79h2.87h1.79h2.91h1.75h0.78
			c0.28,0,0.63-0.42,1.05-1.26c0.41-0.84,0.74-1.33,0.97-1.45c4.19,1.55,6.31,2.46,6.36,2.72c0.47-0.75,0.94-1.5,1.44-2.25
			c0.65-1.03,0.97-1.81,0.97-2.33c0-0.65-0.17-1.46-0.5-2.44C306.01,51.79,305.74,50.97,305.46,50.14z M300.06,52.74
			c0.7-0.47,1.29-0.7,1.79-0.7l0.23,0.04c0.41,0.78,0.67,1.4,0.78,1.86L300.06,52.74z"/>
		<path class="st0" d="M309.42,41.61c1.76-1.06,3.17-1.58,4.23-1.55c0.41-0.49,0.69-0.89,0.82-1.2c-2.48,0-3.85-0.28-4.11-0.85
			c0.57-0.34,0.92-0.5,1.05-0.5c-0.05,0,0.31,0.21,1.09,0.62c0.49-0.7,0.74-1.03,0.74-1.01c0-0.23-0.14-0.42-0.41-0.56
			c-0.27-0.14-0.52-0.21-0.76-0.21c-0.7,0-1.34,0.31-1.92,0.93c-0.58,0.62-0.87,1.28-0.87,1.98c0,0.16,0.23,0.32,0.7,0.5
			c0.34,0.1,0.67,0.21,1.01,0.31c-0.31,0.23-0.62,0.47-0.93,0.7C309.65,41.09,309.44,41.37,309.42,41.61z"/>
		<path class="st0" d="M310.08,47.43l1.75,12.49c1.5-1.76,2.25-3.96,2.25-6.6c0-2.28-0.38-5.94-1.13-10.98
			C311.52,44.31,310.57,46,310.08,47.43z"/>
		<path class="st0" d="M325.44,48.51c-1.11,0.31-2.16,1.31-3.14,2.99c-0.91,1.55-1.36,2.96-1.36,4.23c0,2.23,0.87,3.34,2.6,3.34
			c1.03,0,1.77-0.24,2.21-0.74c0.21-0.21,0.58-0.89,1.13-2.06c0.08,0.13,0.12,0.29,0.12,0.47c0,0.26-0.08,0.61-0.23,1.05
			c-0.44,1.06-1.46,2.26-3.05,3.59c-1.59,1.33-2.97,2.14-4.13,2.43c-0.52,0.13-1.41,0.22-2.68,0.27c-1.14,0.03-1.99,0.13-2.56,0.31
			v0.27c1.27,1.01,3.91,1.51,7.92,1.51c1.99,0,3.65-1.38,4.97-4.15c1.09-2.3,1.63-4.58,1.63-6.83c0-1.29-0.27-2.6-0.82-3.92
			C327.37,49.72,326.5,48.8,325.44,48.51z M325.6,54.72c-0.7,0.26-1.1,0.39-1.2,0.39c-0.47,0-1.05-0.26-1.75-0.78
			c0.1-0.34,0.31-0.67,0.62-0.99c0.31-0.32,0.63-0.48,0.97-0.48c0.39,0,0.72,0.2,0.99,0.6c0.27,0.4,0.39,0.78,0.37,1.14V54.72z"/>
		<path class="st0" d="M345.23,51.46c1.24,0,2.33-0.35,3.26-1.05c1.06-0.75,1.59-1.73,1.59-2.95c0-0.7-0.49-1.07-1.47-1.13
			c-1.22-0.05-1.97-0.22-2.25-0.5c0.41-0.28,1-0.53,1.75-0.74c0.13-0.03,0.76-0.17,1.9-0.43c0.67-1.09,1.09-1.98,1.24-2.68
			c-1.16-0.03-2.73,0.62-4.7,1.94c-2.04,1.42-3.07,2.68-3.07,3.76c0,0.62,0.41,1.04,1.24,1.24c0.67,0.1,1.34,0.21,2.02,0.31
			c-2.04,0.83-3.6,1.37-4.66,1.63C343.04,51.27,344.09,51.46,345.23,51.46z"/>
		<path class="st0" d="M358.35,49.02c1.24-1.68,2.22-2.94,2.95-3.76c-0.52-0.21-1.31-0.65-2.37-1.32c-1.22-0.72-1.9-1.22-2.06-1.48
			c-0.21-0.72-0.32-1.28-0.35-1.67c-0.31,0.21-0.89,0.94-1.75,2.19c-0.85,1.26-1.28,2.02-1.28,2.31c0,0.1,0.21,0.33,0.64,0.68
			c0.43,0.35,0.65,0.59,0.68,0.72c0.26,0.7,0.53,2.02,0.82,3.96c0.28,1.94,0.43,3.31,0.43,4.11c0,0.31-0.04,0.53-0.12,0.66h-16.06
			c-0.65,0-1.19-0.39-1.63-1.16c-0.39-0.67-0.58-1.34-0.58-2.02c0-0.28,0.06-0.7,0.19-1.26c0.13-0.56,0.19-0.96,0.19-1.22
			c0-0.18-0.04-0.34-0.12-0.47c-1.19,1.58-1.79,3.48-1.79,5.7c0,1.09,0.32,2.09,0.97,3.03c0.72,1.06,1.62,1.59,2.68,1.59h17.07
			c0.21,0,0.41-0.06,0.62-0.19c0.21-0.13,0.49-0.93,0.85-2.41c0.34-1.4,0.49-2.28,0.47-2.64l-0.47-4.89
			C358.32,49.43,358.32,49.28,358.35,49.02z"/>
		<path class="st0" d="M368.78,49.06c-0.75,1.73-1.27,3.05-1.55,3.96c2.22,2.25,3.34,3.63,3.34,4.15c0,0.96-0.93,2.21-2.77,3.76
			c-1.85,1.55-3.29,2.33-4.33,2.33c-0.75,0-1.98-0.39-3.69-1.16h-0.47c-0.08,0.16-0.12,0.3-0.12,0.43c0,0.57,1.11,1.29,3.34,2.17
			c2.09,0.8,3.53,1.2,4.31,1.2c1.6,0,3.01-1.23,4.23-3.69c1.06-2.1,1.59-4.05,1.59-5.86c0-1.53-0.35-2.88-1.05-4.07
			C371.07,51.34,370.13,50.27,368.78,49.06z"/>
		<path class="st0" d="M428.27,62.79c-0.44,0-1.47,0.96-3.1,2.87c0.28,0.26,0.81,0.66,1.59,1.2c0.88,0.62,1.44,0.93,1.67,0.93
			c0.31,0,0.85-0.38,1.63-1.13c0.7-0.65,1.16-1.18,1.4-1.59c-0.13-0.16-0.66-0.58-1.59-1.26C428.93,63.13,428.4,62.79,428.27,62.79z
			"/>
		<path class="st0" d="M448.02,45.25c-2.54-1.27-4.01-2.17-4.42-2.72c-0.21-0.72-0.32-1.31-0.35-1.75
			c-0.44,0.18-1.01,0.85-1.71,2.02c-0.18,0.34-0.61,1.16-1.28,2.48c0.08,0.31,0.48,0.7,1.2,1.16c0.31,1.76,0.62,3.53,0.93,5.32
			c0.34,2.1,0.5,3.87,0.5,5.32v0.23c-0.39,0.34-1.35,0.71-2.89,1.13c-1.54,0.41-2.62,0.62-3.24,0.62c-1.22,0-1.81-0.47-1.79-1.4
			l-0.04-0.12c0-0.18,0.09-0.27,0.27-0.27c0.28,0,0.68,0.04,1.2,0.12c0.67,0.1,1.09,0.17,1.24,0.19c1.19-1.58,2.08-2.77,2.68-3.57
			c-1.79-0.23-4.4-1.18-7.84-2.83c-3.23-1.58-5.34-2.37-6.32-2.37c-1.06,0-2.12,0.58-3.18,1.75c-0.83,0.93-1.51,2.01-2.06,3.22
			c0.91-0.62,1.85-0.93,2.83-0.93c1.06,0,2.64,0.66,4.73,1.98c-0.98,0.34-1.71,0.5-2.17,0.5h-5.74h-1.09c-0.8,0-1.47-0.62-2.02-1.86
			c-0.47-1.03-0.69-1.99-0.66-2.87c-0.03-0.34-0.11-0.56-0.25-0.68c-0.14-0.12-0.42-0.17-0.83-0.17c-0.85,0-1.79,0.26-2.81,0.78
			c-1.02,0.52-1.87,1.11-2.54,1.78c-0.26,0.26-0.6,0.8-1.03,1.61c-0.43,0.81-0.73,1.29-0.91,1.42h-2.33h-1.67h-2.99h-1.79h-2.87
			h-1.79h-2.87h-1.79h-2.87h-1.79h-2.79h-1.86h-0.19c-0.75,0-1.16-0.21-1.24-0.62c-0.34-1.37-0.62-3.63-0.85-6.79
			c-0.15-2.35-0.31-4.71-0.47-7.06c-0.26,0.23-0.75,0.82-1.47,1.75c-0.78,1.01-1.16,1.6-1.16,1.79l1.36,15.21h4.04h1.86h2.79h1.79
			h2.87h1.79h2.87h1.79h2.87h1.79h2.99h1.67h1.01c0.49,0,0.85-0.3,1.09-0.89c0.28-0.8,0.49-1.25,0.62-1.36l7.53,4.19
			c0.31-0.13,0.58-0.45,0.8-0.95c0.22-0.5,0.41-0.83,0.56-0.99h1.4h1.48h4.54c0.26,0,1.23-0.41,2.93-1.24
			c1.69-0.83,3.16-1.24,4.4-1.24c0.34,0,0.66,0.04,0.97,0.12c-0.65,1.81-0.97,3.13-0.97,3.96c0,1.78,0.92,2.68,2.76,2.68
			c0.78,0,2.12-0.25,4.04-0.74c2.02-0.54,3.25-1.02,3.69-1.44c0.23-0.26,0.71-1.44,1.44-3.55c0.72-2.11,1.09-3.38,1.09-3.82
			l-0.47-4.77c0-0.05,0-0.23,0-0.54C446.31,47.34,447.32,46.08,448.02,45.25z M414.61,55.26c-0.28-0.03-0.71-0.21-1.28-0.54
			c-0.39-0.26-0.79-0.52-1.2-0.78c0.34-0.26,0.79-0.39,1.36-0.39c0.75,0,1.13,0.3,1.13,0.89V55.26z"/>
		<path class="st0" d="M451.16,47.43l1.75,12.49c1.5-1.76,2.25-3.96,2.25-6.6c0-2.28-0.38-5.94-1.13-10.98
			C452.61,44.31,451.65,46,451.16,47.43z"/>
		<path class="st0" d="M466.53,48.51c-1.11,0.31-2.16,1.31-3.14,2.99c-0.91,1.55-1.36,2.96-1.36,4.23c0,2.23,0.87,3.34,2.6,3.34
			c1.03,0,1.77-0.24,2.21-0.74c0.21-0.21,0.58-0.89,1.13-2.06c0.08,0.13,0.12,0.29,0.12,0.47c0,0.26-0.08,0.61-0.23,1.05
			c-0.44,1.06-1.45,2.26-3.05,3.59c-1.59,1.33-2.97,2.14-4.13,2.43c-0.52,0.13-1.41,0.22-2.68,0.27c-1.14,0.03-1.99,0.13-2.56,0.31
			v0.27c1.27,1.01,3.91,1.51,7.92,1.51c1.99,0,3.65-1.38,4.97-4.15c1.09-2.3,1.63-4.58,1.63-6.83c0-1.29-0.27-2.6-0.81-3.92
			C468.45,49.72,467.59,48.8,466.53,48.51z M466.68,54.72c-0.7,0.26-1.1,0.39-1.2,0.39c-0.47,0-1.05-0.26-1.75-0.78
			c0.1-0.34,0.31-0.67,0.62-0.99c0.31-0.32,0.63-0.48,0.97-0.48c0.39,0,0.72,0.2,0.99,0.6c0.27,0.4,0.39,0.78,0.37,1.14V54.72z"/>
		<path class="st0" d="M483.21,43.12c1.78,1.09,2.85,1.63,3.18,1.63c0.16,0,0.56-0.38,1.2-1.13c0.57-0.67,0.94-1.16,1.13-1.48
			l-3.26-1.75c-1.4,1.09-2.08,1.63-2.06,1.63c-0.44,0-1.41-0.54-2.91-1.63c-1.29,1.42-2.06,2.29-2.29,2.6
			c1.37,0.88,2.44,1.44,3.22,1.67C482.36,43.82,482.95,43.3,483.21,43.12z"/>
		<path class="st0" d="M523.6,63.49c-1.09-0.57-2-1.14-2.75-1.71c-0.39,0.47-0.79,0.92-1.2,1.36c-0.54,0.65-0.87,1.1-0.97,1.36
			c1.06,0.8,2.1,1.38,3.1,1.75c0.65-0.8,1.18-1.34,1.59-1.63c1.73,1.14,2.72,1.71,2.95,1.71c0.16,0,0.53-0.39,1.13-1.16
			c0.36-0.49,0.74-0.98,1.13-1.48l-3.18-1.98L523.6,63.49z"/>
		<path class="st0" d="M557.52,45.56c0.75-0.88,1.15-1.44,1.2-1.67c-1.47-0.67-2.63-1.27-3.45-1.78c-1.48,1.34-2.44,2.37-2.91,3.06
			c1.68,0.72,2.94,1.31,3.76,1.75C556.3,46.9,556.77,46.44,557.52,45.56z"/>
		<path class="st0" d="M589.07,45.25c-2.54-1.27-4.01-2.17-4.42-2.72c-0.21-0.72-0.32-1.31-0.35-1.75
			c-0.44,0.18-1.01,0.85-1.71,2.02c-0.18,0.34-0.61,1.16-1.28,2.48c0.08,0.31,0.48,0.7,1.2,1.16c0.31,1.76,0.62,3.53,0.93,5.32
			c0.34,2.1,0.5,3.87,0.5,5.32v0.23c-0.39,0.34-1.35,0.71-2.89,1.13c-1.54,0.41-2.62,0.62-3.24,0.62c-1.22,0-1.81-0.47-1.78-1.4
			l-0.04-0.12c0-0.18,0.09-0.27,0.27-0.27c0.28,0,0.68,0.04,1.2,0.12c0.67,0.1,1.09,0.17,1.24,0.19c1.19-1.58,2.08-2.77,2.68-3.57
			c-1.78-0.23-4.4-1.18-7.84-2.83c-3.23-1.58-5.34-2.37-6.33-2.37c-1.06,0-2.12,0.58-3.18,1.75c-0.83,0.93-1.51,2.01-2.06,3.22
			c0.91-0.62,1.85-0.93,2.83-0.93c1.06,0,2.64,0.66,4.73,1.98c-0.98,0.34-1.71,0.5-2.17,0.5h-6.01h-0.93c-1.4,0-2.1-0.53-2.1-1.59
			c0-0.36,0.06-0.92,0.19-1.69c0.13-0.76,0.19-1.33,0.19-1.69v-1.75c-0.52,0.52-1.03,1.03-1.55,1.55c-0.6,0.62-1,1.2-1.2,1.75
			c-0.18,0.36-0.27,0.93-0.25,1.71c0.01,0.78-0.05,1.34-0.17,1.71h-5.63h-1.01c-1.19,0-1.79-0.8-1.79-2.41c0-0.1,0-0.28,0-0.54
			c0-0.26,0-0.45,0-0.58c0-0.67-0.05-1.22-0.16-1.63c-0.31,0.18-0.81,0.71-1.51,1.57c-0.7,0.87-1.05,1.45-1.05,1.77
			c0,0.16,0.04,0.38,0.12,0.68c0.08,0.3,0.12,0.52,0.12,0.68c0,0.16-0.06,0.31-0.19,0.47c-1.81-0.08-2.79-0.08-2.95,0
			c0.44-1.78,0.66-3.47,0.66-5.04c0-0.13-0.04-0.27-0.12-0.43c-0.41,0.36-0.97,1.01-1.67,1.94c-0.78,1.06-1.16,1.77-1.16,2.13
			c0,0.7-0.12,1.16-0.35,1.4h-1.4h-1.67h-0.27c0.78-2.22,1.16-3.69,1.16-4.38l-0.08-0.97c-0.39,0.16-0.96,0.66-1.71,1.51
			c-0.75,0.85-1.13,1.46-1.13,1.82c0,0.72-0.17,1.4-0.5,2.02h-3.07h-1.16c-1.19,0-1.79-0.59-1.79-1.78c0-0.31,0.05-0.78,0.14-1.42
			c0.09-0.63,0.14-1.11,0.14-1.42v-2.06c-0.57,0.6-1.14,1.19-1.71,1.79c-0.78,0.85-1.16,1.51-1.16,1.98c0,0.85,0,1.46,0,1.83
			c-0.04,0.42-0.12,0.8-0.28,1.08h-5.32h-1.63h-3.03h-1.78h-2.87h-1.79h-2.87h-1.79h-2.87h-1.78h-2.95H494h-0.27
			c-1.01,0-1.62-0.3-1.82-0.89c-0.36-1.09-0.76-2.91-1.2-5.47c-0.49-2.97-0.85-4.91-1.09-5.82l-0.19-0.12l-2.33,4
			c0.08,0.36,0.21,0.75,0.39,1.16c-1.42,0.8-2.83,1.6-4.23,2.41c-0.98,0.62-1.71,1.36-2.17,2.21c-0.47,0.85-0.98,2.42-1.55,4.7
			l7.02,1.24c0.34,0.08,0.78-0.35,1.32-1.28c0.59-1.09,0.98-1.69,1.16-1.82c0.26,0.83,0.52,1.66,0.78,2.48
			c0.44,0.98,1.07,1.48,1.9,1.48H494h1.71h2.95h1.78h2.87h1.79h2.87h1.79h2.87h1.78h3.03h1.63h4.42c0.72-1.32,1.2-2.15,1.44-2.48
			c0.47,1.66,1.38,2.48,2.76,2.48h1.2h1.32h2.1c0.23,0,0.49-0.16,0.78-0.48c0.28-0.32,0.49-0.52,0.62-0.6
			c0.21,0.39,0.32,0.75,0.35,1.09h1.74h1.67h1.09c0.08,0,0.23-0.12,0.45-0.35c0.22-0.23,0.37-0.35,0.45-0.35
			c0.18,0,0.44,0.23,0.78,0.7h5.2c0.34-0.49,0.59-0.85,0.78-1.09c0.23,0.49,0.4,0.85,0.5,1.09h1.94h1.28h4.73l1.4-2.52
			c0.59,1.68,1.4,2.52,2.41,2.52h1.71h1.2h4.81c0.26,0,1.23-0.41,2.93-1.24c1.69-0.83,3.16-1.24,4.4-1.24
			c0.34,0,0.66,0.04,0.97,0.12c-0.65,1.81-0.97,3.13-0.97,3.96c0,1.78,0.92,2.68,2.76,2.68c0.78,0,2.12-0.25,4.04-0.74
			c2.02-0.54,3.25-1.02,3.69-1.44c0.23-0.26,0.71-1.44,1.44-3.55c0.72-2.11,1.09-3.38,1.09-3.82l-0.47-4.77c0-0.05,0-0.23,0-0.54
			C587.36,47.34,588.37,46.08,589.07,45.25z M484.69,53.21c0.57-0.49,1.06-0.83,1.48-1.01c0.83-0.78,1.41-1.41,1.75-1.9l0.7,3.41
			L484.69,53.21z"/>
		<path class="st0" d="M569.31,62.79c-0.44,0-1.47,0.96-3.1,2.87c0.28,0.26,0.82,0.66,1.59,1.2c0.88,0.62,1.44,0.93,1.67,0.93
			c0.31,0,0.85-0.38,1.63-1.13c0.7-0.65,1.16-1.18,1.4-1.59c-0.13-0.16-0.66-0.58-1.59-1.26C569.97,63.13,569.44,62.79,569.31,62.79
			z"/>
		<path class="st0" d="M592.21,47.43l1.75,12.49c1.5-1.76,2.25-3.96,2.25-6.6c0-2.28-0.38-5.94-1.13-10.98
			C593.66,44.31,592.7,46,592.21,47.43z"/>
		<path class="st0" d="M607.57,48.51c-1.11,0.31-2.16,1.31-3.14,2.99c-0.91,1.55-1.36,2.96-1.36,4.23c0,2.23,0.87,3.34,2.6,3.34
			c1.03,0,1.77-0.24,2.21-0.74c0.21-0.21,0.58-0.89,1.13-2.06c0.08,0.13,0.12,0.29,0.12,0.47c0,0.26-0.08,0.61-0.23,1.05
			c-0.44,1.06-1.45,2.26-3.05,3.59c-1.59,1.33-2.97,2.14-4.13,2.43c-0.52,0.13-1.41,0.22-2.68,0.27c-1.14,0.03-1.99,0.13-2.56,0.31
			v0.27c1.27,1.01,3.91,1.51,7.92,1.51c1.99,0,3.65-1.38,4.97-4.15c1.09-2.3,1.63-4.58,1.63-6.83c0-1.29-0.27-2.6-0.81-3.92
			C609.5,49.72,608.63,48.8,607.57,48.51z M607.73,54.72c-0.7,0.26-1.1,0.39-1.2,0.39c-0.47,0-1.05-0.26-1.75-0.78
			c0.1-0.34,0.31-0.67,0.62-0.99c0.31-0.32,0.63-0.48,0.97-0.48c0.39,0,0.72,0.2,0.99,0.6c0.27,0.4,0.39,0.78,0.37,1.14V54.72z"/>
		<path class="st0" d="M624.26,43.12c1.78,1.09,2.85,1.63,3.18,1.63c0.16,0,0.56-0.38,1.2-1.13c0.57-0.67,0.94-1.16,1.13-1.48
			l-3.26-1.75c-1.4,1.09-2.08,1.63-2.06,1.63c-0.44,0-1.41-0.54-2.91-1.63c-1.29,1.42-2.06,2.29-2.29,2.6
			c1.37,0.88,2.44,1.44,3.22,1.67C623.4,43.82,624,43.3,624.26,43.12z"/>
		<path class="st0" d="M674.51,59.61c0.57-2.97,0.85-4.99,0.85-6.05c0-1.86-1-3.98-2.99-6.36l-2.21,3.8
			c1.11,1.5,1.91,2.95,2.41,4.35h-7.8h-1.51h-3.14h-1.79h-2.87h-1.79h-2.87h-1.78h-2.87h-1.79h-2.87h-1.78h-2.95h-1.71h-0.27
			c-1.01,0-1.62-0.3-1.82-0.89c-0.36-1.09-0.76-2.91-1.2-5.47c-0.49-2.97-0.85-4.91-1.09-5.82l-0.19-0.12l-2.33,4
			c0.08,0.36,0.21,0.75,0.39,1.16c-1.42,0.8-2.83,1.6-4.23,2.41c-0.98,0.62-1.71,1.36-2.17,2.21c-0.47,0.85-0.98,2.42-1.55,4.7
			l7.02,1.24c0.34,0.08,0.78-0.35,1.32-1.28c0.59-1.09,0.98-1.69,1.16-1.82c0.26,0.83,0.52,1.66,0.78,2.48
			c0.44,0.98,1.07,1.48,1.9,1.48h2.29h1.71h2.95h1.78h2.87h1.79h2.87h1.78h2.87h1.79h2.87h1.79h3.14h1.51H674.51z M625.73,53.21
			c0.57-0.49,1.06-0.83,1.48-1.01c0.83-0.78,1.41-1.41,1.75-1.9l0.7,3.41L625.73,53.21z"/>
		<path class="st0" d="M669.56,63.12c-0.48,0.53-0.81,0.8-0.99,0.8c-0.31,0-1.23-0.54-2.76-1.63c-0.78,0.85-1.47,1.72-2.09,2.6
			c0.62,0.54,1.6,1.16,2.95,1.86c0.78-0.78,1.36-1.33,1.75-1.67l2.91,1.71c0.7-0.54,1.45-1.44,2.25-2.68l-3.07-1.9
			C670.35,62.29,670.04,62.59,669.56,63.12z"/>
		<path class="st0" d="M714.59,43.89c-1.24-0.75-1.93-1.29-2.06-1.63c-0.13-0.34-0.21-0.76-0.23-1.28l-0.23-0.19
			c-0.83,0.91-1.75,2.42-2.76,4.54c0.41,0.52,0.81,0.92,1.2,1.2c0.23,0.57,0.52,1.93,0.85,4.09c0.34,2.16,0.5,3.6,0.5,4.33
			c0,0.13-0.04,0.26-0.12,0.39h-2.87c-0.62,0-0.97-0.01-1.05-0.04c-0.36-0.05-0.57-0.26-0.62-0.62c-0.13-0.93-0.31-3.25-0.54-6.95
			c-0.18-2.9-0.49-5.2-0.93-6.91l-0.16-0.12l-2.99,4.19l1.55,10.44h-3.03h-1.01h-2.64c0.44-1.01,0.87-2.02,1.28-3.03
			c0.54-1.37,0.81-2.39,0.81-3.06v-2.21c-1.19,0-2.54,0.67-4.03,2.02c-1.29,1.11-2.3,2.3-3.03,3.57c-0.54,1.19-0.93,2.1-1.16,2.72
			h-1.24h-1.79h-0.54c-0.7-4.45-1.93-6.67-3.69-6.67c-1.14,0-2.28,1.09-3.41,3.26c-1.01,1.94-1.51,3.52-1.51,4.73
			c0,1.14,0.66,1.93,1.98,2.37c0.18,0.08,1.31,0.3,3.38,0.66c-0.93,0.91-2.07,1.72-3.41,2.44c-1.53,0.8-2.86,1.2-4,1.2
			c-0.36,0-0.92-0.1-1.67-0.31c-0.75-0.21-1.32-0.31-1.71-0.31c-0.13,0-0.25,0.04-0.35,0.12v0.39c0.65,0.75,1.72,1.41,3.22,1.98
			c1.42,0.54,2.68,0.82,3.76,0.82c1.32,0,2.69-0.76,4.11-2.29c1.11-1.22,2-2.59,2.68-4.11h1.16h1.75c0.1,0,0.4,0.48,0.89,1.44
			c0.62,1.19,1.18,2.08,1.67,2.68c0.78,0.96,1.58,1.44,2.41,1.44c2.12,0,3.75-1.85,4.89-5.55h0.19h1.01h1.74l1.4-2.56
			c0.03,0.49,0.05,0.98,0.08,1.47c0.1,0.72,0.31,1.09,0.62,1.09h2.72h1.2h3.96c0.36-0.18,0.57-0.31,0.62-0.39
			c0.18-0.23,0.41-1.01,0.7-2.33c0.28-1.32,0.4-2.15,0.35-2.48l-0.47-5.24l3.03-3.92C716.37,44.94,715.55,44.49,714.59,43.89z
			 M683.9,55.26c-1.11,0-1.89-0.37-2.33-1.13c0-0.05,0-0.1,0-0.16c-0.03-0.18,0.14-0.44,0.48-0.78c0.35-0.34,0.62-0.5,0.8-0.5
			c0.39,0,0.76,0.31,1.13,0.93c0.05,0.05,0.29,0.53,0.7,1.44C684.41,55.2,684.16,55.26,683.9,55.26z M697.24,61.01h-0.89
			c-0.67,0-1.32-0.23-1.94-0.68c-0.62-0.45-1.07-1-1.36-1.65c0.75,0,1.54,0.18,2.37,0.54c0.93,0.41,1.54,0.92,1.82,1.51V61.01z
			 M696.04,53.52c-0.83,0.31-1.66,0.63-2.48,0.97h-0.27c1.6-2.07,2.88-3.41,3.84-4.04c0.08,0.23,0.12,0.53,0.12,0.89
			C697.24,52.38,696.84,53.1,696.04,53.52z"/>
		<path class="st0" d="M730.11,43.12c1.78,1.09,2.85,1.63,3.18,1.63c0.16,0,0.56-0.38,1.2-1.13c0.57-0.67,0.94-1.16,1.13-1.48
			l-3.26-1.75c-1.4,1.09-2.08,1.63-2.06,1.63c-0.44,0-1.41-0.54-2.91-1.63c-1.29,1.42-2.06,2.29-2.29,2.6
			c1.37,0.88,2.44,1.44,3.22,1.67C729.26,43.82,729.85,43.3,730.11,43.12z"/>
		<path class="st0" d="M775.41,63.12c-0.48,0.53-0.81,0.8-0.99,0.8c-0.31,0-1.23-0.54-2.76-1.63c-0.78,0.85-1.47,1.72-2.09,2.6
			c0.62,0.54,1.6,1.16,2.95,1.86c0.78-0.78,1.36-1.33,1.75-1.67l2.91,1.71c0.7-0.54,1.45-1.44,2.25-2.68l-3.07-1.9
			C776.21,62.29,775.89,62.59,775.41,63.12z"/>
		<path class="st0" d="M776.01,51c1.11,1.5,1.91,2.95,2.41,4.35h-7.8h-1.51h-3.14h-1.79h-2.87h-1.78h-2.87h-1.79h-2.87h-1.78h-2.87
			h-1.79h-2.95h-1.71h-0.27c-1.01,0-1.62-0.3-1.82-0.89c-0.36-1.09-0.76-2.91-1.2-5.47c-0.49-2.97-0.85-4.91-1.09-5.82l-0.19-0.12
			l-2.33,4c0.08,0.36,0.21,0.75,0.39,1.16c-1.42,0.8-2.83,1.6-4.23,2.41c-0.98,0.62-1.71,1.36-2.17,2.21
			c-0.47,0.85-0.98,2.42-1.55,4.7l7.02,1.24c0.34,0.08,0.78-0.35,1.32-1.28c0.59-1.09,0.98-1.69,1.16-1.82
			c0.26,0.83,0.52,1.66,0.78,2.48c0.44,0.98,1.07,1.48,1.9,1.48h2.29h1.71h2.95h1.79h2.87h1.78h2.87h1.79h2.87h1.78h2.87h1.79h3.14
			h1.51h9.74c0.57-2.97,0.85-4.99,0.85-6.05c0-1.86-1-3.98-2.99-6.36L776.01,51z M731.58,53.21c0.57-0.49,1.06-0.83,1.48-1.01
			c0.83-0.78,1.41-1.41,1.75-1.9l0.7,3.41L731.58,53.21z"/>
		<path class="st0" d="M788.12,46.26l-1.36,4.46c0.75,0.1,1.7,0.7,2.85,1.79c1.15,1.09,1.73,1.98,1.73,2.68
			c0,0.05-0.01,0.1-0.04,0.16h-7.57l-0.39,4.27h9.35c0.85,0,1.28-1.49,1.28-4.46C793.98,50.98,792.03,48.02,788.12,46.26z"/>
		<path class="st0" d="M830.61,51c1.06,1.37,1.86,2.82,2.41,4.35h-8.11c0.28-0.93,0.65-1.96,1.09-3.1c-0.93,0.03-2.15-0.1-3.65-0.39
			c-1.5-0.28-2.72-0.61-3.65-0.97c-1.14-0.52-2.26-1.05-3.38-1.59c-1.4-0.62-2.57-0.93-3.53-0.93c-0.57,0-1.07,0.09-1.51,0.27
			c-0.49,0-1.24,0.65-2.25,1.96c-1.01,1.31-1.51,2.22-1.51,2.74c0,0.16,0.03,0.23,0.08,0.23h0.27c1.16-0.72,2.11-1.09,2.83-1.09
			c0.67,0,1.55,0.19,2.64,0.58c0.85,0.34,1.72,0.66,2.6,0.97l0.04,0.12c-1.63,0.62-3.29,1-4.97,1.13c-0.67,0.05-2.82,0.08-6.44,0.08
			c-0.75,0-1.16-0.21-1.24-0.62c-0.34-1.37-0.62-3.63-0.85-6.79c-0.16-2.35-0.31-4.71-0.47-7.06c-0.26,0.23-0.75,0.82-1.47,1.75
			c-0.78,1.01-1.16,1.6-1.16,1.79l1.36,15.21h3.76h2.13h5.2c0.44,0,1.5-0.5,3.18-1.51c1.68-1.01,3.19-1.51,4.54-1.51
			c0.93,0,1.95,0.05,3.06,0.16c0.05,0.7,0.18,1.66,0.39,2.87h12.81c0.18-0.41,0.38-1.34,0.58-2.79c0.18-1.34,0.27-2.31,0.27-2.91
			c0-2.43-0.94-4.68-2.83-6.75L830.61,51z"/>
		<path class="st0" d="M826.92,43.82c0.18,0.03,0.74,0.3,1.69,0.83s1.48,0.8,1.61,0.8c0.13,0,0.54-0.39,1.24-1.16
			c0.41-0.47,0.83-0.94,1.24-1.44l-3.45-1.9c-1.24,1.14-1.94,1.71-2.09,1.71c-0.47,0-1.46-0.54-2.99-1.63
			c-1.24,1.16-2.06,2.03-2.44,2.6c1.6,1.16,2.7,1.75,3.3,1.75C825.18,45.37,825.81,44.85,826.92,43.82z"/>
		<path class="st0" d="M855.91,43.78c-0.65-0.36-1.29-0.72-1.94-1.09c-0.8-0.52-1.2-1.09-1.2-1.71c0-0.1,0.01-0.22,0.04-0.35
			c-1.86,2.41-2.79,3.79-2.79,4.15c0-0.08,0.16,0.18,0.47,0.78c0.31,0.6,0.47,1.14,0.47,1.63c0,1.29-0.32,2.41-0.97,3.34
			c-0.96-1.48-2.57-3.26-4.85-5.36c-2.66-2.41-4.62-3.6-5.86-3.57h-0.12c-1.09,1.97-1.63,3.45-1.63,4.46c0,0.93,0.44,1.68,1.32,2.25
			c2.17,1.24,3.83,2.16,4.97,2.76c0.1-0.03,0.28-0.21,0.52-0.56c0.24-0.35,0.41-0.52,0.48-0.52c0.23,0,0.75,0.43,1.55,1.28
			c0.72,0.75,1.19,1.29,1.4,1.63c-0.05,0.46-0.69,0.98-1.9,1.55c-0.59,0.31-1.41,0.65-2.44,1.01c-0.72,1.84-1.24,3.22-1.55,4.15
			h10.17c0.21-1.4,0.31-2.42,0.31-3.07c0-1.11-0.47-2.59-1.4-4.42c1.22-1.32,2.04-2.94,2.48-4.85c0.31,0.1,0.67,0.21,1.09,0.31
			c0.31-0.44,0.62-0.87,0.93-1.28c0.36-0.54,0.54-1.02,0.54-1.44c0-0.13-0.01-0.32-0.02-0.56
			C855.95,44.06,855.93,43.88,855.91,43.78z M849.47,55.88c-0.83,0-1.58-0.03-2.25-0.08c0.8-0.65,1.38-1.16,1.75-1.55
			c0.47,0.7,0.79,1.24,0.97,1.63H849.47z"/>
		<path class="st0" d="M859.98,47.43l1.75,12.49c1.5-1.76,2.25-3.96,2.25-6.6c0-2.28-0.38-5.94-1.13-10.98
			C861.43,44.31,860.47,46,859.98,47.43z"/>
		<path class="st0" d="M878.76,43.12c1.78,1.09,2.85,1.63,3.18,1.63c0.16,0,0.56-0.38,1.2-1.13c0.57-0.67,0.94-1.16,1.13-1.48
			l-3.26-1.75c-1.4,1.09-2.08,1.63-2.06,1.63c-0.44,0-1.41-0.54-2.91-1.63c-1.29,1.42-2.06,2.29-2.29,2.6
			c1.37,0.88,2.44,1.44,3.22,1.67C877.91,43.82,878.5,43.3,878.76,43.12z"/>
		<path class="st0" d="M916.52,45.45c0.75,0.18,1.18,0.32,1.28,0.43c-0.39,0.29-0.78,0.57-1.18,0.85c-0.4,0.29-0.67,0.65-0.8,1.09
			c2.25-1.34,3.89-2.01,4.93-1.98h0.35c0.52-0.7,0.87-1.2,1.05-1.51c-0.93-0.05-1.88-0.09-2.83-0.12c-1.29-0.1-2.11-0.43-2.44-0.97
			c0.67-0.44,1.13-0.66,1.36-0.66c0.21,0,0.46,0.12,0.78,0.35c0.44,0.31,0.67,0.48,0.7,0.51c0.03-0.03,0.18-0.27,0.47-0.74
			c0.23-0.36,0.35-0.58,0.35-0.66c0-0.23-0.16-0.47-0.46-0.7c-0.31-0.23-0.58-0.35-0.82-0.35c-0.85,0-1.67,0.4-2.46,1.2
			s-1.18,1.63-1.18,2.48C915.59,45.06,915.9,45.32,916.52,45.45z"/>
		<path class="st0" d="M930.64,63.49c-1.09-0.57-2-1.14-2.75-1.71c-0.39,0.47-0.79,0.92-1.2,1.36c-0.54,0.65-0.87,1.1-0.97,1.36
			c1.06,0.8,2.1,1.38,3.1,1.75c0.65-0.8,1.18-1.34,1.59-1.63c1.73,1.14,2.72,1.71,2.95,1.71c0.16,0,0.53-0.39,1.13-1.16
			c0.36-0.49,0.74-0.98,1.13-1.48l-3.18-1.98L930.64,63.49z"/>
		<path class="st0" d="M954,43.89c-1.24-0.75-1.93-1.29-2.06-1.63c-0.13-0.34-0.21-0.76-0.23-1.28l-0.23-0.19
			c-0.83,0.91-1.75,2.42-2.76,4.54c0.41,0.52,0.81,0.92,1.2,1.2c0.23,0.57,0.52,1.93,0.85,4.09c0.34,2.16,0.5,3.6,0.5,4.33
			c0,0.13-0.04,0.26-0.12,0.39h-2.91h-1.16h-2.48c0.44-1.01,0.87-2.02,1.28-3.03c0.54-1.37,0.81-2.39,0.81-3.06v-2.21
			c-1.19,0-2.54,0.67-4.03,2.02c-1.29,1.11-2.3,2.3-3.03,3.57c-0.54,1.19-0.93,2.1-1.16,2.72h-1.24h-1.16
			c-1.19,0-1.79-0.59-1.79-1.78c0-0.31,0.05-0.78,0.14-1.42c0.09-0.63,0.14-1.11,0.14-1.42v-2.06c-0.57,0.6-1.14,1.19-1.71,1.79
			c-0.78,0.85-1.16,1.51-1.16,1.98c0,0.85,0,1.46,0,1.83c-0.04,0.42-0.12,0.8-0.28,1.08h-5.2c-1.14,0-1.9-0.05-2.29-0.16
			c-0.96-0.21-1.44-0.72-1.44-1.55c0-0.39,0.06-0.96,0.17-1.73c0.12-0.76,0.18-1.33,0.18-1.69v-1.63c-0.49,0.52-1,1.02-1.51,1.51
			c-0.6,0.62-1.01,1.19-1.24,1.71c-0.18,1.14-0.27,2.01-0.27,2.62c0,0.61-0.04,0.91-0.12,0.91h-5.08h-1.9h-2.75h-1.79h-2.87h-1.79
			h-2.87h-1.78h-2.87h-1.79h-2.95h-1.71h-0.27c-1.01,0-1.62-0.3-1.82-0.89c-0.36-1.09-0.76-2.91-1.2-5.47
			c-0.49-2.97-0.85-4.91-1.09-5.82l-0.19-0.12l-2.33,4c0.08,0.36,0.21,0.75,0.39,1.16c-1.42,0.8-2.83,1.6-4.23,2.41
			c-0.98,0.62-1.71,1.36-2.17,2.21c-0.47,0.85-0.98,2.42-1.55,4.7l7.02,1.24c0.34,0.08,0.78-0.35,1.32-1.28
			c0.59-1.09,0.98-1.69,1.16-1.82c0.26,0.83,0.52,1.66,0.78,2.48c0.44,0.98,1.07,1.48,1.9,1.48h2.29h1.71h2.95h1.79h2.87h1.78h2.87
			h1.79h2.87h1.79h2.75h1.9h4.15l1.4-2.48c0.28,0.52,0.57,1.03,0.85,1.55c0.39,0.62,0.99,0.93,1.82,0.93h1.63h1.75h4.31
			c0.72-1.32,1.2-2.15,1.44-2.48c0.47,1.66,1.38,2.48,2.76,2.48h0.74h1.75c0.1,0,0.4,0.48,0.89,1.44c0.62,1.19,1.18,2.08,1.67,2.68
			c0.78,0.96,1.58,1.44,2.41,1.44c2.12,0,3.75-1.85,4.89-5.55h0.04h1.16h4c0.36-0.18,0.57-0.31,0.62-0.39
			c0.18-0.23,0.41-1.01,0.7-2.33c0.28-1.32,0.4-2.15,0.35-2.48l-0.47-5.24l3.03-3.92C955.79,44.94,954.96,44.49,954,43.89z
			 M880.24,53.21c0.57-0.49,1.06-0.83,1.48-1.01c0.83-0.78,1.41-1.41,1.75-1.9l0.7,3.41L880.24,53.21z M944.38,61.01h-0.89
			c-0.67,0-1.32-0.23-1.94-0.68c-0.62-0.45-1.07-1-1.36-1.65c0.75,0,1.54,0.18,2.37,0.54c0.93,0.41,1.54,0.92,1.82,1.51V61.01z
			 M943.17,53.52c-0.83,0.31-1.66,0.63-2.48,0.97h-0.27c1.6-2.07,2.88-3.41,3.84-4.04c0.08,0.23,0.12,0.53,0.12,0.89
			C944.38,52.38,943.98,53.1,943.17,53.52z"/>
		<path class="st0" d="M962.58,42.34c-1.42,1.97-2.38,3.66-2.87,5.08l1.75,12.49c1.5-1.76,2.25-3.96,2.25-6.6
			C963.7,51.05,963.33,47.39,962.58,42.34z"/>
	</g>
	<g>
		<path class="st0" d="M176.54,83.85c1.02,0,1.51,0,1.81-0.14c0.3-0.3,0.63-0.74,0.81-1.78c-1.11,0-5.05-0.02-5.89,0
			c-1.02,0.05-2.39,0.23-2.8,0.35c0.05,0.81,0.07,1.44,0.07,2.46v11.38c0,0.37,0.16,0.44,0.51,0.44c0.9,0,2.06-0.07,2.46-0.19
			c-0.05-1.74-0.07-3.66-0.07-5.98h3.55c0.9,0,1.46-0.16,1.69-1.92h-5.24v-4.61H176.54z"/>
		<path class="st0" d="M186.55,94.63c-0.88,0-1.62-0.05-2.15-0.16v-4.54h3.52c0.81,0,1.32-0.3,1.53-1.92h-5.05v-4.15h2.41
			c1.04,0,1.83,0,2.18-0.14c0.28-0.3,0.56-0.74,0.7-1.78c-1.81,0-4.45,0-5.63,0c-0.95,0.02-1.97,0.16-2.62,0.32
			c0.07,0.97,0.07,1.81,0.07,2.92v10.71l0.35,0.44c0.56,0.12,2.08,0.23,4.12,0.23c1.78,0,2.83-0.05,3.15-0.12
			c0.58-0.32,1.02-0.86,1.23-1.85l-0.05-0.05C189.19,94.63,187.5,94.63,186.55,94.63z"/>
		<path class="st0" d="M197.51,81.79c-1.9,0-4.24,0.32-4.75,0.44c0.02,0.6,0.05,1.04,0.05,2.64V96.2c1.48,0.3,2.87,0.44,4.59,0.44
			c4.75,0,8.34-2.69,8.34-7.69C205.74,85.98,204.49,81.79,197.51,81.79z M197.51,94.83c-0.63,0-1.25-0.05-1.81-0.18V83.71
			c0.35-0.07,0.76-0.12,1.48-0.12c3.45,0,5.45,1.9,5.45,5.4C202.63,93.84,199.6,94.83,197.51,94.83z"/>
		<path class="st0" d="M213.73,94.63c-0.88,0-1.62-0.05-2.15-0.16v-4.54h3.52c0.81,0,1.32-0.3,1.53-1.92h-5.05v-4.15h2.41
			c1.04,0,1.83,0,2.18-0.14c0.28-0.3,0.56-0.74,0.69-1.78c-1.81,0-4.45,0-5.63,0c-0.95,0.02-1.97,0.16-2.62,0.32
			c0.07,0.97,0.07,1.81,0.07,2.92v10.71l0.35,0.44c0.56,0.12,2.09,0.23,4.13,0.23c1.78,0,2.83-0.05,3.15-0.12
			c0.58-0.32,1.02-0.86,1.23-1.85l-0.05-0.05C216.38,94.63,214.69,94.63,213.73,94.63z"/>
		<path class="st0" d="M226.64,89.67c0.93-0.42,2.78-1.48,2.78-3.68c0-2.94-1.83-4.19-5.52-4.19c-1.06,0-3.38,0.25-3.98,0.39
			c0.05,0.65,0.05,1.2,0.05,2.36v7.76c0,1.95-0.02,3.31-0.07,4.24c0.46,0,1.74-0.02,2.39-0.09c0.39-0.05,0.53-0.14,0.53-0.6V90.5
			c0.16,0,0.25,0,0.42,0c0.76,0,1.21,0.19,1.92,1.51c0.93,1.81,1.39,2.73,2.02,3.55c0.6,0.81,1.21,1.04,2.06,1.04
			c0.83,0,1.69-0.09,1.88-0.23v-0.09c-0.58-0.63-1.32-1.67-2.43-3.61C227.89,91.29,227.18,90.13,226.64,89.67z M225.05,88.67
			c-0.33,0.16-1.6,0.23-2.23,0.16v-5.26c0.28-0.05,0.67-0.07,1-0.07c1.44,0,2.64,0.81,2.64,2.73
			C226.46,87.79,225.53,88.49,225.05,88.67z"/>
		<path class="st0" d="M241.01,82.25c-0.12-0.28-0.32-0.42-0.53-0.42c-0.28,0-1.58,0.09-2.43,0.28l0.19,0.49
			c-0.88,2.11-4.5,10.73-5.7,13.56v0.09c0.51,0.16,1.53,0.3,2.04,0.3c0.37,0,0.56-0.12,0.65-0.33c0.3-0.74,0.97-2.46,1.51-3.8h5.24
			c0.53,1.32,0.86,2.2,1.27,3.38c0.23,0.63,0.42,0.74,0.79,0.74c0.51,0,2.09-0.12,2.6-0.28v-0.09c-0.46-0.97-1.02-2.43-1.97-4.8
			C243.84,89.37,242.08,84.8,241.01,82.25z M237.37,90.5c0.79-1.99,1.44-3.82,2.02-5.35c0.25,0.74,0.95,2.48,2.02,5.35H237.37z"/>
		<path class="st0" d="M253.92,94.63c-0.86,0-1.65-0.05-2.08-0.16V83.2c0-1.16-0.07-1.37-0.46-1.37c-0.88,0-1.99,0.12-2.5,0.19
			c0.05,0.49,0.07,1.44,0.07,2.99v10.87l0.35,0.44c0.58,0.12,2.13,0.23,4.06,0.23c1.78,0,2.6-0.05,2.92-0.12
			c0.58-0.32,1.04-0.97,1.18-1.88l-0.02-0.05C256.29,94.63,254.87,94.63,253.92,94.63z"/>
		<path class="st0" d="M272.14,82.25c-0.12-0.28-0.32-0.42-0.53-0.42c-0.28,0-1.58,0.09-2.43,0.28l0.19,0.49
			c-0.88,2.11-4.5,10.73-5.7,13.56v0.09c0.51,0.16,1.53,0.3,2.04,0.3c0.37,0,0.56-0.12,0.65-0.33c0.3-0.74,0.97-2.46,1.51-3.8h5.24
			c0.53,1.32,0.86,2.2,1.27,3.38c0.23,0.63,0.42,0.74,0.79,0.74c0.51,0,2.09-0.12,2.6-0.28v-0.09c-0.46-0.97-1.02-2.43-1.97-4.8
			C274.97,89.37,273.21,84.8,272.14,82.25z M268.5,90.5c0.79-1.99,1.44-3.82,2.02-5.35c0.25,0.74,0.95,2.48,2.02,5.35H268.5z"/>
		<path class="st0" d="M289.24,82.51v6.95c0,4.43-1.58,5.21-3.45,5.21c-1.6,0-3.45-0.7-3.45-5.01v-6.49c0-1.14-0.07-1.34-0.49-1.34
			c-0.46,0-2.06,0.12-2.48,0.19c0.05,0.49,0.07,1.44,0.07,2.99v4.75c0,4.98,2.11,7,6.03,7c2.83,0,6.26-0.93,6.26-7.42v-3.29
			c0-1.92,0.02-3.29,0.07-4.22c-0.46,0-1.37,0.02-2.04,0.09C289.43,81.97,289.24,82.07,289.24,82.51z"/>
		<path class="st0" d="M294.85,81.81c-0.23,0.25-0.51,0.65-0.76,1.34c-0.16,0.53,0.02,0.69,0.39,0.69h4.17v12.28
			c0,0.35,0.16,0.42,0.49,0.42c0.93,0,1.83-0.07,2.48-0.19c-0.02-0.46-0.07-1.23-0.07-2.83v-9.69h3.68
			c0.49-0.12,1.11-0.69,1.21-1.92h-8.25C295.85,81.93,295.23,81.9,294.85,81.81z"/>
		<path class="st0" d="M320.65,81.83c-0.72,0.02-1.85,0.05-2.41,0.09c-0.37,0.05-0.56,0.14-0.56,0.65v5.33h-6.19v-4.82
			c0-1.04-0.07-1.25-0.49-1.25c-0.49,0-1.88,0.07-2.48,0.19c0.05,0.44,0.07,1.39,0.07,2.97v7.32c0,1.95-0.02,3.31-0.07,4.24
			c0.49,0.02,1.62-0.02,2.25-0.09c0.53-0.05,0.72-0.14,0.72-0.63v-6h3.55c1.41,0,2.18-0.02,2.64-0.07v6.35
			c0,0.37,0.16,0.44,0.49,0.44c0.53,0,2.02-0.07,2.48-0.19c-0.02-0.46-0.07-1.23-0.07-2.85v-7.48
			C320.58,84.11,320.6,82.72,320.65,81.83z"/>
		<path class="st0" d="M331.15,81.58h-0.02c-4.73,0-7.53,3.34-7.53,7.72c0,3.5,2.11,7.46,7.46,7.46c4.91,0,7.48-3.57,7.48-7.72
			C338.54,84.96,335.83,81.58,331.15,81.58z M331.27,94.95c-2.43,0-4.54-2.06-4.54-5.93c0-3.8,1.88-5.63,4.15-5.63h0.02
			c2.87,0,4.57,2.57,4.57,5.86C335.46,92.87,333.86,94.95,331.27,94.95z"/>
		<path class="st0" d="M348.18,89.67c0.93-0.42,2.78-1.48,2.78-3.68c0-2.94-1.83-4.19-5.52-4.19c-1.07,0-3.38,0.25-3.99,0.39
			c0.05,0.65,0.05,1.2,0.05,2.36v7.76c0,1.95-0.02,3.31-0.07,4.24c0.46,0,1.74-0.02,2.39-0.09c0.39-0.05,0.53-0.14,0.53-0.6V90.5
			c0.16,0,0.25,0,0.42,0c0.76,0,1.2,0.19,1.92,1.51c0.93,1.81,1.39,2.73,2.02,3.55c0.6,0.81,1.2,1.04,2.06,1.04
			c0.83,0,1.69-0.09,1.88-0.23v-0.09c-0.58-0.63-1.32-1.67-2.43-3.61C349.44,91.29,348.72,90.13,348.18,89.67z M346.59,88.67
			c-0.32,0.16-1.6,0.23-2.22,0.16v-5.26c0.28-0.05,0.67-0.07,1-0.07c1.44,0,2.64,0.81,2.64,2.73
			C348,87.79,347.07,88.49,346.59,88.67z"/>
		<path class="st0" d="M357.71,83.09c0-1.04-0.07-1.25-0.46-1.25c-0.49,0-2.09,0.12-2.5,0.19c0.05,0.44,0.07,1.39,0.07,2.94v11.12
			c0,0.39,0.14,0.46,0.49,0.46c0.53,0,2.09-0.07,2.48-0.19c-0.02-0.46-0.07-1.23-0.07-2.85V83.09z"/>
		<path class="st0" d="M360.79,81.81c-0.23,0.25-0.51,0.65-0.76,1.34c-0.16,0.53,0.02,0.69,0.39,0.69h4.17v12.28
			c0,0.35,0.16,0.42,0.49,0.42c0.93,0,1.83-0.07,2.48-0.19c-0.02-0.46-0.07-1.23-0.07-2.83v-9.69h3.68c0.49-0.12,1.11-0.69,1.2-1.92
			h-8.25C361.79,81.93,361.16,81.9,360.79,81.81z"/>
		<path class="st0" d="M385.57,82.07c-0.32-0.12-1.09-0.23-1.95-0.23c-0.44,0.81-2.66,4.54-3.66,6.07c-1-1.67-2.16-3.68-2.97-4.98
			c-0.58-0.97-0.74-1.09-1.16-1.09c-0.6,0-1.74,0.19-2.53,0.42v0.07c1.37,1.99,3.43,5.12,4.68,7.28c0.16,0.28,0.19,0.63,0.19,1.07
			v5.47c0,0.35,0.07,0.42,0.42,0.42c1.27,0,2.02-0.07,2.55-0.19c-0.02-0.51-0.07-1.2-0.07-2.78v-3.17c0-0.3,0.07-0.65,0.25-0.97
			c0.25-0.39,3.68-5.47,4.26-6.42C385.89,82.51,385.94,82.21,385.57,82.07z"/>
		<path class="st0" d="M399.47,83.85c1.02,0,1.51,0,1.81-0.14c0.3-0.3,0.63-0.74,0.81-1.78c-1.11,0-5.05-0.02-5.89,0
			c-1.02,0.05-2.39,0.23-2.8,0.35c0.05,0.81,0.07,1.44,0.07,2.46v11.38c0,0.37,0.16,0.44,0.51,0.44c0.9,0,2.06-0.07,2.46-0.19
			c-0.05-1.74-0.07-3.66-0.07-5.98h3.55c0.9,0,1.46-0.16,1.69-1.92h-5.24v-4.61H399.47z"/>
		<path class="st0" d="M411.25,81.58h-0.02c-4.73,0-7.53,3.34-7.53,7.72c0,3.5,2.11,7.46,7.46,7.46c4.91,0,7.48-3.57,7.48-7.72
			C418.64,84.96,415.93,81.58,411.25,81.58z M411.36,94.95c-2.43,0-4.54-2.06-4.54-5.93c0-3.8,1.88-5.63,4.15-5.63h0.02
			c2.87,0,4.57,2.57,4.57,5.86C415.56,92.87,413.96,94.95,411.36,94.95z"/>
		<path class="st0" d="M428.28,89.67c0.93-0.42,2.78-1.48,2.78-3.68c0-2.94-1.83-4.19-5.52-4.19c-1.07,0-3.38,0.25-3.99,0.39
			c0.05,0.65,0.05,1.2,0.05,2.36v7.76c0,1.95-0.02,3.31-0.07,4.24c0.46,0,1.74-0.02,2.39-0.09c0.39-0.05,0.53-0.14,0.53-0.6V90.5
			c0.16,0,0.25,0,0.42,0c0.76,0,1.2,0.19,1.92,1.51c0.93,1.81,1.39,2.73,2.02,3.55c0.6,0.81,1.2,1.04,2.06,1.04
			c0.83,0,1.69-0.09,1.88-0.23v-0.09c-0.58-0.63-1.32-1.67-2.43-3.61C429.53,91.29,428.82,90.13,428.28,89.67z M426.68,88.67
			c-0.32,0.16-1.6,0.23-2.22,0.16v-5.26c0.28-0.05,0.67-0.07,1-0.07c1.44,0,2.64,0.81,2.64,2.73
			C428.1,87.79,427.17,88.49,426.68,88.67z"/>
		<path class="st0" d="M442.95,83.09c0-1.04-0.07-1.25-0.46-1.25c-0.49,0-2.09,0.12-2.5,0.19c0.05,0.44,0.07,1.39,0.07,2.94v11.12
			c0,0.39,0.14,0.46,0.49,0.46c0.53,0,2.09-0.07,2.48-0.19c-0.02-0.46-0.07-1.23-0.07-2.85V83.09z"/>
		<path class="st0" d="M451.53,81.79c-1.9,0-4.24,0.32-4.75,0.44c0.02,0.6,0.05,1.04,0.05,2.64V96.2c1.48,0.3,2.87,0.44,4.59,0.44
			c4.75,0,8.34-2.69,8.34-7.69C459.76,85.98,458.51,81.79,451.53,81.79z M451.53,94.83c-0.63,0-1.25-0.05-1.81-0.18V83.71
			c0.35-0.07,0.76-0.12,1.48-0.12c3.45,0,5.45,1.9,5.45,5.4C456.65,93.84,453.62,94.83,451.53,94.83z"/>
		<path class="st0" d="M467.75,94.63c-0.88,0-1.62-0.05-2.15-0.16v-4.54h3.52c0.81,0,1.32-0.3,1.53-1.92h-5.05v-4.15h2.41
			c1.04,0,1.83,0,2.18-0.14c0.28-0.3,0.56-0.74,0.69-1.78c-1.81,0-4.45,0-5.63,0c-0.95,0.02-1.97,0.16-2.62,0.32
			c0.07,0.97,0.07,1.81,0.07,2.92v10.71l0.35,0.44c0.56,0.12,2.09,0.23,4.13,0.23c1.78,0,2.83-0.05,3.15-0.12
			c0.58-0.32,1.02-0.86,1.23-1.85l-0.05-0.05C470.4,94.63,468.7,94.63,467.75,94.63z"/>
		<path class="st0" d="M483.77,82.6v6.46c0,1.16-0.02,2.06,0.12,3.85c-0.56-1.18-1.41-2.48-2.46-4.13
			c-1.67-2.57-3.57-5.47-4.31-6.54c-0.23-0.25-0.42-0.42-0.65-0.42c-0.42,0-2.41,0.12-2.85,0.19v0.12l0.42,0.58v9.62
			c0,1.95-0.02,3.29-0.07,4.22c0.7,0.02,1.44-0.02,1.85-0.09c0.37-0.07,0.51-0.14,0.51-0.63v-6.07c0-1.18,0.02-2.39-0.12-4.73
			c0.95,1.78,1.62,3.08,2.85,5.03c1.83,2.83,3.01,4.63,4.22,6.3c0.16,0.23,0.3,0.32,0.58,0.32c0.67,0,1.99-0.28,2.2-0.37V86.1
			c0-1.92,0.02-3.27,0.07-4.26c-0.53,0-1.16,0.02-1.88,0.09C483.93,81.97,483.77,82.07,483.77,82.6z"/>
		<path class="st0" d="M489.19,81.81c-0.23,0.25-0.51,0.65-0.76,1.34c-0.16,0.53,0.02,0.69,0.39,0.69h4.17v12.28
			c0,0.35,0.16,0.42,0.49,0.42c0.93,0,1.83-0.07,2.48-0.19c-0.02-0.46-0.07-1.23-0.07-2.83v-9.69h3.68
			c0.49-0.12,1.11-0.69,1.21-1.92h-8.25C490.19,81.93,489.56,81.9,489.19,81.81z"/>
		<path class="st0" d="M505.83,83.09c0-1.04-0.07-1.25-0.46-1.25c-0.49,0-2.08,0.12-2.5,0.19c0.05,0.44,0.07,1.39,0.07,2.94v11.12
			c0,0.39,0.14,0.46,0.49,0.46c0.53,0,2.09-0.07,2.48-0.19c-0.02-0.46-0.07-1.23-0.07-2.85V83.09z"/>
		<path class="st0" d="M508.92,81.81c-0.23,0.25-0.51,0.65-0.76,1.34c-0.16,0.53,0.02,0.69,0.39,0.69h4.17v12.28
			c0,0.35,0.16,0.42,0.49,0.42c0.93,0,1.83-0.07,2.48-0.19c-0.02-0.46-0.07-1.23-0.07-2.83v-9.69h3.68
			c0.49-0.12,1.11-0.69,1.21-1.92h-8.25C509.91,81.93,509.29,81.9,508.92,81.81z"/>
		<path class="st0" d="M529.45,89.44c0.25-0.39,3.68-5.47,4.26-6.42c0.3-0.51,0.35-0.81-0.02-0.95c-0.33-0.12-1.09-0.23-1.95-0.23
			c-0.44,0.81-2.66,4.54-3.66,6.07c-1-1.67-2.15-3.68-2.97-4.98c-0.58-0.97-0.74-1.09-1.16-1.09c-0.6,0-1.74,0.19-2.53,0.42v0.07
			c1.37,1.99,3.43,5.12,4.68,7.28c0.16,0.28,0.18,0.63,0.18,1.07v5.47c0,0.35,0.07,0.42,0.42,0.42c1.27,0,2.02-0.07,2.55-0.19
			c-0.02-0.51-0.07-1.2-0.07-2.78v-3.17C529.2,90.11,529.26,89.76,529.45,89.44z"/>
		<path class="st0" d="M535.57,92.84h-0.02c-0.69,0-1.44,0.33-1.99,0.6c0.07,0.23,0.14,0.6,0.14,1.04c0,1.53-0.63,3.08-1.67,4.36
			c0.81,0.02,1.6-0.07,2.2-0.51c1.09-0.76,2.23-2.5,2.23-3.99C536.45,93.68,536.22,92.84,535.57,92.84z"/>
		<path class="st0" d="M552.07,83.57c1.27,0,2.36,0.32,3.06,0.63c0.74,0.12,1.27-0.67,1.23-1.46c-0.37-0.42-2.06-1.16-4.26-1.16
			c-4.59,0-8.23,2.94-8.23,7.74c0,4.43,2.85,7.44,8.13,7.44c1.55,0,2.78-0.42,3.36-0.79c0.39-0.37,0.7-1.04,0.76-1.83l-0.07-0.05
			c-0.6,0.18-1.83,0.58-3.38,0.58c-3.68,0-5.7-2.41-5.7-5.56C546.97,85.4,549.27,83.57,552.07,83.57z"/>
		<path class="st0" d="M561.67,83.09c0-1.04-0.07-1.25-0.46-1.25c-0.49,0-2.09,0.12-2.5,0.19c0.05,0.44,0.07,1.39,0.07,2.94v11.12
			c0,0.39,0.14,0.46,0.49,0.46c0.53,0,2.09-0.07,2.48-0.19c-0.02-0.46-0.07-1.23-0.07-2.85V83.09z"/>
		<path class="st0" d="M564.75,81.81c-0.23,0.25-0.51,0.65-0.76,1.34c-0.16,0.53,0.02,0.69,0.39,0.69h4.17v12.28
			c0,0.35,0.16,0.42,0.49,0.42c0.93,0,1.83-0.07,2.48-0.19c-0.02-0.46-0.07-1.23-0.07-2.83v-9.69h3.68
			c0.49-0.12,1.11-0.69,1.21-1.92h-8.25C565.75,81.93,565.12,81.9,564.75,81.81z"/>
		<path class="st0" d="M581.39,83.09c0-1.04-0.07-1.25-0.46-1.25c-0.49,0-2.09,0.12-2.5,0.19c0.05,0.44,0.07,1.39,0.07,2.94v11.12
			c0,0.39,0.14,0.46,0.49,0.46c0.53,0,2.09-0.07,2.48-0.19c-0.02-0.46-0.07-1.23-0.07-2.85V83.09z"/>
		<path class="st0" d="M588.32,94.49c2.43-3.82,5.77-9.55,6.3-10.71c0.28-0.81,0.39-1.18,0.46-1.85h-8.18
			c-0.76,0-1.32-0.05-1.74-0.19c-0.23,0.23-0.63,0.74-0.79,1.23c-0.19,0.53-0.07,0.86,1.32,0.86c1.3,0,4.8,0,5.86,0
			c-1.02,1.97-4.63,7.95-7.51,11.96c0.02,0.18,0.14,0.37,0.35,0.58c1.04,0.12,3.62,0.19,6.33,0.19c2.78,0,3.45-0.07,3.66-0.09
			c0.33-0.12,1.11-0.86,1.44-1.85l-0.02-0.05C594.39,94.67,589.5,94.67,588.32,94.49z"/>
		<path class="st0" d="M603.22,94.63c-0.88,0-1.62-0.05-2.15-0.16v-4.54h3.52c0.81,0,1.32-0.3,1.53-1.92h-5.05v-4.15h2.41
			c1.04,0,1.83,0,2.18-0.14c0.28-0.3,0.56-0.74,0.7-1.78c-1.81,0-4.45,0-5.63,0c-0.95,0.02-1.97,0.16-2.62,0.32
			c0.07,0.97,0.07,1.81,0.07,2.92v10.71l0.35,0.44c0.56,0.12,2.09,0.23,4.13,0.23c1.78,0,2.83-0.05,3.15-0.12
			c0.58-0.32,1.02-0.86,1.23-1.85l-0.05-0.05C605.87,94.63,604.17,94.63,603.22,94.63z"/>
		<path class="st0" d="M619.24,82.6v6.46c0,1.16-0.02,2.06,0.12,3.85c-0.56-1.18-1.41-2.48-2.46-4.13
			c-1.67-2.57-3.57-5.47-4.31-6.54c-0.23-0.25-0.42-0.42-0.65-0.42c-0.42,0-2.41,0.12-2.85,0.19v0.12l0.42,0.58v9.62
			c0,1.95-0.02,3.29-0.07,4.22c0.69,0.02,1.44-0.02,1.85-0.09c0.37-0.07,0.51-0.14,0.51-0.63v-6.07c0-1.18,0.02-2.39-0.12-4.73
			c0.95,1.78,1.62,3.08,2.85,5.03c1.83,2.83,3.01,4.63,4.22,6.3c0.16,0.23,0.3,0.32,0.58,0.32c0.67,0,1.99-0.28,2.2-0.37V86.1
			c0-1.92,0.02-3.27,0.07-4.26c-0.53,0-1.16,0.02-1.88,0.09C619.4,81.97,619.24,82.07,619.24,82.6z"/>
		<path class="st0" d="M630.22,88.07c-2.15-1.23-2.92-1.78-2.92-2.87c0-1.02,0.88-1.6,2.11-1.6c0.74,0,1.74,0.3,2.27,0.58
			c0.81,0.05,1.18-0.9,1.18-1.48c-0.58-0.6-2.11-1.11-3.34-1.11h-0.02c-3.82,0-4.94,2.53-4.94,4.1c0,1.39,0.46,2.87,3.15,4.33
			c2.34,1.27,2.87,1.85,2.87,2.87c0,1.18-0.97,1.78-2.36,1.78c-1.11,0-2.5-0.51-3.34-1.09c-0.21,0.14-0.56,1-0.56,1.48
			c0,0.3,0.14,0.53,0.53,0.79c0.6,0.44,1.78,0.9,3.38,0.9c2.74,0,5.24-1.55,5.24-4.43C633.49,90.13,632.31,89.25,630.22,88.07z"/>
		<path class="st0" d="M648.28,81.83c-0.72,0.02-1.85,0.05-2.41,0.09c-0.37,0.05-0.56,0.14-0.56,0.65v5.33h-6.19v-4.82
			c0-1.04-0.07-1.25-0.49-1.25c-0.49,0-1.88,0.07-2.48,0.19c0.05,0.44,0.07,1.39,0.07,2.97v7.32c0,1.95-0.02,3.31-0.07,4.24
			c0.49,0.02,1.62-0.02,2.25-0.09c0.53-0.05,0.72-0.14,0.72-0.63v-6h3.55c1.41,0,2.18-0.02,2.64-0.07v6.35
			c0,0.37,0.16,0.44,0.49,0.44c0.53,0,2.02-0.07,2.48-0.19c-0.02-0.46-0.07-1.23-0.07-2.85v-7.48
			C648.21,84.11,648.23,82.72,648.28,81.83z"/>
		<path class="st0" d="M654.98,83.09c0-1.04-0.07-1.25-0.46-1.25c-0.49,0-2.09,0.12-2.5,0.19c0.05,0.44,0.07,1.39,0.07,2.94v11.12
			c0,0.39,0.14,0.46,0.49,0.46c0.53,0,2.09-0.07,2.48-0.19c-0.02-0.46-0.07-1.23-0.07-2.85V83.09z"/>
		<path class="st0" d="M668.53,86.49c0-3.5-2.46-4.7-5.98-4.7c-1.6,0-3.17,0.19-3.8,0.28c0.09,1.06,0.09,2.02,0.09,3.13v10.94
			c0,0.35,0.16,0.42,0.51,0.42c0.63,0,2.06-0.07,2.46-0.19c-0.02-0.46-0.07-1.14-0.07-2.76v-9.94c0.33-0.05,0.65-0.07,0.93-0.07
			c1.37,0,2.85,0.7,2.85,2.9c0,2.34-1.44,2.94-2.6,2.94c-0.23,0-0.56-0.02-0.74-0.07c0,0.74,0.42,1.39,0.76,1.58
			c0.25,0.14,0.81,0.19,1.18,0.19C665.66,91.1,668.53,89.83,668.53,86.49z"/>
		<path class="st0" d="M670.18,92.84h-0.02c-0.69,0-1.44,0.33-1.99,0.6c0.07,0.23,0.14,0.6,0.14,1.04c0,1.53-0.63,3.08-1.67,4.36
			c0.81,0.02,1.6-0.07,2.2-0.51c1.09-0.76,2.22-2.5,2.22-3.99C671.06,93.68,670.83,92.84,670.18,92.84z"/>
		<path class="st0" d="M686.68,83.57c1.27,0,2.36,0.32,3.06,0.63c0.74,0.12,1.27-0.67,1.23-1.46c-0.37-0.42-2.06-1.16-4.26-1.16
			c-4.59,0-8.23,2.94-8.23,7.74c0,4.43,2.85,7.44,8.13,7.44c1.55,0,2.78-0.42,3.36-0.79c0.39-0.37,0.7-1.04,0.76-1.83l-0.07-0.05
			c-0.6,0.18-1.83,0.58-3.38,0.58c-3.68,0-5.7-2.41-5.7-5.56C681.58,85.4,683.88,83.57,686.68,83.57z"/>
		<path class="st0" d="M703.21,82.51v6.95c0,4.43-1.58,5.21-3.45,5.21c-1.6,0-3.45-0.7-3.45-5.01v-6.49c0-1.14-0.07-1.34-0.49-1.34
			c-0.46,0-2.06,0.12-2.48,0.19c0.05,0.49,0.07,1.44,0.07,2.99v4.75c0,4.98,2.11,7,6.03,7c2.83,0,6.26-0.93,6.26-7.42v-3.29
			c0-1.92,0.02-3.29,0.07-4.22c-0.46,0-1.37,0.02-2.04,0.09C703.39,81.97,703.21,82.07,703.21,82.51z"/>
		<path class="st0" d="M714.1,88.07c-2.15-1.23-2.92-1.78-2.92-2.87c0-1.02,0.88-1.6,2.11-1.6c0.74,0,1.74,0.3,2.27,0.58
			c0.81,0.05,1.18-0.9,1.18-1.48c-0.58-0.6-2.11-1.11-3.34-1.11h-0.02c-3.82,0-4.94,2.53-4.94,4.1c0,1.39,0.46,2.87,3.15,4.33
			c2.34,1.27,2.87,1.85,2.87,2.87c0,1.18-0.97,1.78-2.36,1.78c-1.11,0-2.5-0.51-3.34-1.09c-0.21,0.14-0.56,1-0.56,1.48
			c0,0.3,0.14,0.53,0.53,0.79c0.6,0.44,1.78,0.9,3.38,0.9c2.74,0,5.24-1.55,5.24-4.43C717.37,90.13,716.19,89.25,714.1,88.07z"/>
		<path class="st0" d="M719.41,81.81c-0.23,0.25-0.51,0.65-0.76,1.34c-0.16,0.53,0.02,0.69,0.39,0.69h4.17v12.28
			c0,0.35,0.16,0.42,0.49,0.42c0.93,0,1.83-0.07,2.48-0.19c-0.02-0.46-0.07-1.23-0.07-2.83v-9.69h3.68
			c0.49-0.12,1.11-0.69,1.21-1.92h-8.25C720.41,81.93,719.78,81.9,719.41,81.81z"/>
		<path class="st0" d="M739.18,81.58h-0.02c-4.73,0-7.53,3.34-7.53,7.72c0,3.5,2.11,7.46,7.46,7.46c4.91,0,7.49-3.57,7.49-7.72
			C746.57,84.96,743.86,81.58,739.18,81.58z M739.29,94.95c-2.43,0-4.54-2.06-4.54-5.93c0-3.8,1.88-5.63,4.15-5.63h0.02
			c2.87,0,4.56,2.57,4.56,5.86C743.49,92.87,741.89,94.95,739.29,94.95z"/>
		<path class="st0" d="M763.91,82.55c-0.07-0.58-0.21-0.72-0.44-0.72c-0.56,0-2.11,0.14-2.46,0.32v0.35
			c-0.97,2.36-2.53,6.54-3.68,9.57l-3.13-8.64c-0.42-1.18-0.6-1.51-0.95-1.6c-1.11,0-1.95,0.21-2.53,0.32l0.07,0.44
			c-0.9,5.28-1.83,11.29-2.25,13.74c0.37,0.21,1.44,0.21,2.06,0.21c0.25,0,0.37-0.12,0.42-0.37c0.35-2.71,1.04-8.02,1.37-10.87
			c1.04,3.15,3.08,9.29,3.64,11.1c0.46,0,1.02-0.09,1.44-0.16c0.51-0.12,0.67-0.3,0.83-0.76c1.48-4.36,2.85-8.2,3.5-10.22l0.67,5.82
			c0.25,2.46,0.39,3.71,0.53,4.89c0.05,0.46,0.35,0.58,0.65,0.58c0.46,0,1.92-0.09,2.32-0.21c-0.21-1.11-0.46-2.83-0.83-5.26
			L763.91,82.55z"/>
		<path class="st0" d="M773.76,88.07c-2.16-1.23-2.92-1.78-2.92-2.87c0-1.02,0.88-1.6,2.11-1.6c0.74,0,1.74,0.3,2.27,0.58
			c0.81,0.05,1.18-0.9,1.18-1.48c-0.58-0.6-2.11-1.11-3.34-1.11h-0.02c-3.82,0-4.94,2.53-4.94,4.1c0,1.39,0.46,2.87,3.15,4.33
			c2.34,1.27,2.87,1.85,2.87,2.87c0,1.18-0.97,1.78-2.36,1.78c-1.11,0-2.5-0.51-3.34-1.09c-0.21,0.14-0.56,1-0.56,1.48
			c0,0.3,0.14,0.53,0.53,0.79c0.6,0.44,1.78,0.9,3.38,0.9c2.74,0,5.24-1.55,5.24-4.43C777.03,90.13,775.85,89.25,773.76,88.07z"/>
		<path class="st0" d="M798.19,87.53v-0.09c-0.28-0.23-0.86-0.58-1.78-0.58c-0.39,0-0.7,0.3-1,0.79c-0.65,1.14-1.48,2.87-1.99,3.89
			c-0.39-0.35-1.85-1.69-2.9-2.62c1.18-0.76,2.78-1.69,2.78-3.52c0-2.2-1.65-3.22-3.64-3.22c-2.32,0-3.87,1.62-3.87,3.61
			c0,1.07,0.39,2.16,1.41,3.18c-1.09,0.69-2.83,1.67-2.83,3.71c0,2.48,1.76,4.01,4.54,4.01c1.34,0,2.8-0.44,4.17-1.85
			c0.51,0.44,1.16,1.04,1.55,1.44c0.3,0.25,0.6,0.42,1.02,0.42c1.21,0,2.2-0.25,2.6-0.39l0.02-0.09c-0.35-0.32-1.16-1.16-3.55-3.31
			C796.31,90.11,797.49,88.3,798.19,87.53z M788.18,85.45c0-1.09,0.63-1.69,1.41-1.69c0.76,0,1.39,0.63,1.39,1.71
			c0,1-0.51,1.76-1.48,2.43c-0.88-0.81-1.32-1.55-1.32-2.43V85.45z M789.73,94.65h-0.02c-1.6,0-2.6-1.16-2.6-2.48
			c0-1.04,0.58-1.78,1.09-2.13c0.72,0.81,2.85,2.8,3.68,3.62C791.33,94.33,790.47,94.65,789.73,94.65z"/>
		<path class="st0" d="M810.08,81.79c-1.6,0-3.17,0.19-3.8,0.28c0.09,1.06,0.09,2.02,0.09,3.13v10.94c0,0.35,0.16,0.42,0.51,0.42
			c0.63,0,2.06-0.07,2.46-0.19c-0.02-0.46-0.07-1.14-0.07-2.76v-9.94c0.33-0.05,0.65-0.07,0.93-0.07c1.37,0,2.85,0.7,2.85,2.9
			c0,2.34-1.44,2.94-2.6,2.94c-0.23,0-0.56-0.02-0.74-0.07c0,0.74,0.42,1.39,0.76,1.58c0.25,0.14,0.81,0.19,1.18,0.19
			c1.53-0.02,4.4-1.3,4.4-4.64C816.06,82.99,813.6,81.79,810.08,81.79z"/>
		<path class="st0" d="M825.68,81.58h-0.02c-4.73,0-7.53,3.34-7.53,7.72c0,3.5,2.11,7.46,7.46,7.46c4.91,0,7.49-3.57,7.49-7.72
			C833.07,84.96,830.36,81.58,825.68,81.58z M825.79,94.95c-2.43,0-4.54-2.06-4.54-5.93c0-3.8,1.88-5.63,4.15-5.63h0.02
			c2.87,0,4.56,2.57,4.56,5.86C829.99,92.87,828.39,94.95,825.79,94.95z"/>
		<path class="st0" d="M842.71,89.67c0.93-0.42,2.78-1.48,2.78-3.68c0-2.94-1.83-4.19-5.52-4.19c-1.07,0-3.38,0.25-3.99,0.39
			c0.05,0.65,0.05,1.2,0.05,2.36v7.76c0,1.95-0.02,3.31-0.07,4.24c0.46,0,1.74-0.02,2.39-0.09c0.39-0.05,0.53-0.14,0.53-0.6V90.5
			c0.16,0,0.25,0,0.42,0c0.76,0,1.21,0.19,1.92,1.51c0.93,1.81,1.39,2.73,2.02,3.55c0.6,0.81,1.21,1.04,2.06,1.04
			c0.84,0,1.69-0.09,1.88-0.23v-0.09c-0.58-0.63-1.32-1.67-2.43-3.61C843.96,91.29,843.24,90.13,842.71,89.67z M841.11,88.67
			c-0.32,0.16-1.6,0.23-2.22,0.16v-5.26c0.28-0.05,0.67-0.07,1-0.07c1.44,0,2.64,0.81,2.64,2.73
			C842.53,87.79,841.6,88.49,841.11,88.67z"/>
		<path class="st0" d="M848.3,81.81c-0.23,0.25-0.51,0.65-0.76,1.34c-0.16,0.53,0.02,0.69,0.39,0.69h4.17v12.28
			c0,0.35,0.16,0.42,0.49,0.42c0.93,0,1.83-0.07,2.48-0.19c-0.02-0.46-0.07-1.23-0.07-2.83v-9.69h3.68
			c0.49-0.12,1.11-0.69,1.21-1.92h-8.25C849.29,81.93,848.67,81.9,848.3,81.81z"/>
		<path class="st0" d="M872.22,88.07c-2.15-1.23-2.92-1.78-2.92-2.87c0-1.02,0.88-1.6,2.11-1.6c0.74,0,1.74,0.3,2.27,0.58
			c0.81,0.05,1.18-0.9,1.18-1.48c-0.58-0.6-2.11-1.11-3.34-1.11h-0.02c-3.82,0-4.94,2.53-4.94,4.1c0,1.39,0.46,2.87,3.15,4.33
			c2.34,1.27,2.87,1.85,2.87,2.87c0,1.18-0.97,1.78-2.36,1.78c-1.11,0-2.5-0.51-3.34-1.09c-0.21,0.14-0.56,1-0.56,1.48
			c0,0.3,0.14,0.53,0.53,0.79c0.6,0.44,1.78,0.9,3.38,0.9c2.74,0,5.24-1.55,5.24-4.43C875.48,90.13,874.3,89.25,872.22,88.07z"/>
		<path class="st0" d="M883.27,94.63c-0.88,0-1.62-0.05-2.16-0.16v-4.54h3.52c0.81,0,1.32-0.3,1.53-1.92h-5.05v-4.15h2.41
			c1.04,0,1.83,0,2.18-0.14c0.28-0.3,0.56-0.74,0.7-1.78c-1.81,0-4.45,0-5.63,0c-0.95,0.02-1.97,0.16-2.62,0.32
			c0.07,0.97,0.07,1.81,0.07,2.92v10.71l0.35,0.44c0.56,0.12,2.09,0.23,4.13,0.23c1.78,0,2.83-0.05,3.15-0.12
			c0.58-0.32,1.02-0.86,1.23-1.85l-0.05-0.05C885.91,94.63,884.22,94.63,883.27,94.63z"/>
		<path class="st0" d="M896.74,83.57c1.27,0,2.36,0.32,3.06,0.63c0.74,0.12,1.27-0.67,1.23-1.46c-0.37-0.42-2.06-1.16-4.26-1.16
			c-4.59,0-8.23,2.94-8.23,7.74c0,4.43,2.85,7.44,8.13,7.44c1.55,0,2.78-0.42,3.36-0.79c0.39-0.37,0.7-1.04,0.76-1.83l-0.07-0.05
			c-0.6,0.18-1.83,0.58-3.38,0.58c-3.68,0-5.7-2.41-5.7-5.56C891.64,85.4,893.93,83.57,896.74,83.57z"/>
		<path class="st0" d="M913.26,82.51v6.95c0,4.43-1.58,5.21-3.45,5.21c-1.6,0-3.45-0.7-3.45-5.01v-6.49c0-1.14-0.07-1.34-0.49-1.34
			c-0.46,0-2.06,0.12-2.48,0.19c0.05,0.49,0.07,1.44,0.07,2.99v4.75c0,4.98,2.11,7,6.03,7c2.83,0,6.26-0.93,6.26-7.42v-3.29
			c0-1.92,0.02-3.29,0.07-4.22c-0.46,0-1.37,0.02-2.04,0.09C913.45,81.97,913.26,82.07,913.26,82.51z"/>
		<path class="st0" d="M926.06,89.67c0.93-0.42,2.78-1.48,2.78-3.68c0-2.94-1.83-4.19-5.52-4.19c-1.07,0-3.38,0.25-3.99,0.39
			c0.05,0.65,0.05,1.2,0.05,2.36v7.76c0,1.95-0.02,3.31-0.07,4.24c0.46,0,1.74-0.02,2.39-0.09c0.39-0.05,0.53-0.14,0.53-0.6V90.5
			c0.16,0,0.25,0,0.42,0c0.76,0,1.21,0.19,1.92,1.51c0.93,1.81,1.39,2.73,2.02,3.55c0.6,0.81,1.21,1.04,2.06,1.04
			c0.84,0,1.69-0.09,1.88-0.23v-0.09c-0.58-0.63-1.32-1.67-2.43-3.61C927.31,91.29,926.59,90.13,926.06,89.67z M924.46,88.67
			c-0.32,0.16-1.6,0.23-2.22,0.16v-5.26c0.28-0.05,0.67-0.07,1-0.07c1.44,0,2.64,0.81,2.64,2.73
			C925.87,87.79,924.94,88.49,924.46,88.67z"/>
		<path class="st0" d="M935.58,83.09c0-1.04-0.07-1.25-0.46-1.25c-0.49,0-2.09,0.12-2.5,0.19c0.05,0.44,0.07,1.39,0.07,2.94v11.12
			c0,0.39,0.14,0.46,0.49,0.46c0.53,0,2.09-0.07,2.48-0.19c-0.02-0.46-0.07-1.23-0.07-2.85V83.09z"/>
		<path class="st0" d="M938.66,81.81c-0.23,0.25-0.51,0.65-0.76,1.34c-0.16,0.53,0.02,0.69,0.39,0.69h4.17v12.28
			c0,0.35,0.16,0.42,0.49,0.42c0.93,0,1.83-0.07,2.48-0.19c-0.02-0.46-0.07-1.23-0.07-2.83v-9.69h3.68
			c0.49-0.12,1.11-0.69,1.21-1.92H942C939.66,81.93,939.03,81.9,938.66,81.81z"/>
		<path class="st0" d="M963.44,82.07c-0.32-0.12-1.09-0.23-1.95-0.23c-0.44,0.81-2.66,4.54-3.66,6.07c-1-1.67-2.15-3.68-2.97-4.98
			c-0.58-0.97-0.74-1.09-1.16-1.09c-0.6,0-1.74,0.19-2.53,0.42v0.07c1.37,1.99,3.43,5.12,4.68,7.28c0.16,0.28,0.18,0.63,0.18,1.07
			v5.47c0,0.35,0.07,0.42,0.42,0.42c1.27,0,2.02-0.07,2.55-0.19c-0.02-0.51-0.07-1.2-0.07-2.78v-3.17c0-0.3,0.07-0.65,0.25-0.97
			c0.25-0.39,3.68-5.47,4.26-6.42C963.76,82.51,963.81,82.21,963.44,82.07z"/>
	</g>
	<g>
		<g>
			<path class="st0" d="M33.49,8.68c0.36,1.43,0.72,2.87,1.08,4.3c1.87,7.47,3.81,15.2,6.33,22.64
				c5.41,15.96,15.39,30.91,31.43,47.04l0.48,0.48c0.95,0.95,1.85,1.85,2.65,2.79c6.51,7.68,6.52,8.28,0.13,16.1
				c-4.18,5.12-6.49,10.77-6.92,16.83c-0.63-6.6,0.99-12.98,4.94-19.48c3.82-6.29,3.21-9.88-2.51-14.77
				C56.53,72.15,46.16,60.44,38.45,47.74c-4.92-8.11-9.76-17.97-8.26-29.59C30.65,14.58,31.76,11.41,33.49,8.68"/>
			<g>
				<path class="st1" d="M50.41,100.4c0.53,0.14,1.07-0.17,1.21-0.7c0.14-0.53-0.17-1.08-0.7-1.22c-0.53-0.14-1.07,0.17-1.21,0.7
					C49.56,99.71,49.88,100.26,50.41,100.4z"/>
				<path class="st1" d="M40.98,106.05c0.14-0.53-0.17-1.08-0.7-1.22c-0.53-0.14-1.07,0.17-1.21,0.7c-0.15,0.53,0.17,1.07,0.7,1.21
					C40.3,106.89,40.84,106.58,40.98,106.05z"/>
				<path class="st1" d="M41.46,107.21c-0.53-0.14-1.07,0.17-1.21,0.7c-0.15,0.53,0.17,1.07,0.7,1.21c0.53,0.14,1.07-0.17,1.21-0.7
					C42.3,107.89,41.99,107.35,41.46,107.21z"/>
				<path class="st1" d="M42.58,111.64c-0.15,0.53,0.17,1.07,0.7,1.21c0.53,0.14,1.07-0.17,1.21-0.7c0.14-0.53-0.17-1.08-0.7-1.22
					C43.26,110.79,42.72,111.11,42.58,111.64z"/>
				<path class="st1" d="M46.36,114.56c0.14-0.53-0.17-1.07-0.7-1.22c-0.53-0.14-1.07,0.17-1.21,0.7c-0.15,0.53,0.17,1.07,0.7,1.21
					C45.67,115.4,46.22,115.09,46.36,114.56z"/>
				<path class="st1" d="M47.54,115.08c-0.53-0.14-1.07,0.17-1.21,0.7c-0.15,0.53,0.17,1.07,0.7,1.21c0.53,0.14,1.07-0.17,1.21-0.7
					C48.38,115.77,48.07,115.23,47.54,115.08z"/>
				<path class="st1" d="M50.86,101.95c-0.15,0.53,0.17,1.07,0.7,1.21c0.53,0.14,1.07-0.17,1.21-0.7c0.14-0.53-0.17-1.08-0.7-1.22
					C51.54,101.11,51,101.42,50.86,101.95z"/>
				<path class="st1" d="M53.82,103.96c-0.53-0.14-1.07,0.17-1.21,0.7c-0.15,0.53,0.17,1.07,0.7,1.21c0.53,0.14,1.07-0.17,1.21-0.7
					C54.66,104.64,54.35,104.1,53.82,103.96z"/>
				<path class="st1" d="M47.82,102.38c0.69,0.19,1.4-0.22,1.59-0.91c0.18-0.69-0.22-1.4-0.92-1.59c-0.69-0.19-1.4,0.22-1.59,0.92
					C46.72,101.48,47.13,102.2,47.82,102.38z"/>
				<path class="st1" d="M44.85,104.04c0.69,0.19,1.41-0.23,1.6-0.92c0.19-0.7-0.22-1.41-0.92-1.6c-0.7-0.19-1.41,0.23-1.6,0.92
					C43.73,103.14,44.15,103.85,44.85,104.04z"/>
				<path class="st1" d="M42.04,105.44c0.61,0.16,1.23-0.2,1.4-0.81c0.16-0.61-0.2-1.24-0.81-1.4c-0.61-0.16-1.24,0.2-1.4,0.81
					C41.07,104.65,41.43,105.28,42.04,105.44z"/>
				<path class="st1" d="M43.24,108.04c0.61,0.16,1.23-0.2,1.4-0.81c0.16-0.61-0.2-1.24-0.81-1.4c-0.61-0.16-1.24,0.2-1.4,0.81
					C42.27,107.25,42.63,107.88,43.24,108.04z"/>
				<path class="st1" d="M44.73,110.32c0.61,0.16,1.23-0.2,1.4-0.81c0.16-0.61-0.2-1.24-0.81-1.4c-0.61-0.16-1.24,0.2-1.4,0.81
					C43.76,109.53,44.12,110.16,44.73,110.32z"/>
				<path class="st1" d="M47.72,111.82c0.16-0.61-0.2-1.24-0.81-1.4c-0.61-0.16-1.24,0.2-1.4,0.81c-0.17,0.61,0.19,1.24,0.81,1.4
					C46.93,112.79,47.56,112.43,47.72,111.82z"/>
				<path class="st1" d="M48.72,112.35c-0.61-0.16-1.24,0.2-1.4,0.81c-0.17,0.61,0.19,1.23,0.81,1.4c0.61,0.16,1.23-0.2,1.4-0.81
					C49.69,113.14,49.33,112.51,48.72,112.35z"/>
				<path class="st1" d="M45.14,105.05c-0.19,0.7,0.22,1.41,0.92,1.6c0.69,0.19,1.41-0.23,1.6-0.92c0.19-0.7-0.22-1.41-0.92-1.6
					C46.04,103.94,45.32,104.36,45.14,105.05z"/>
				<path class="st1" d="M49.19,108.25c0.19-0.7-0.23-1.41-0.92-1.6c-0.7-0.19-1.41,0.22-1.6,0.92c-0.19,0.7,0.22,1.41,0.92,1.6
					C48.28,109.36,49,108.94,49.19,108.25z"/>
				<path class="st1" d="M50.19,108.95c-0.7-0.19-1.41,0.23-1.6,0.92c-0.19,0.7,0.22,1.41,0.92,1.6c0.69,0.19,1.41-0.23,1.6-0.92
					C51.3,109.86,50.89,109.14,50.19,108.95z"/>
				<path class="st1" d="M50.82,104.53c0.18-0.69-0.22-1.4-0.92-1.59c-0.69-0.19-1.4,0.22-1.59,0.92c-0.19,0.69,0.22,1.4,0.92,1.59
					C49.92,105.63,50.63,105.22,50.82,104.53z"/>
				<path class="st1" d="M51.93,105.92c-0.69-0.19-1.4,0.22-1.59,0.92c-0.19,0.69,0.22,1.4,0.92,1.59c0.69,0.19,1.4-0.23,1.59-0.92
					C53.03,106.82,52.62,106.11,51.93,105.92z"/>
				<path class="st1" d="M62.19,95.45c0.06-0.23-0.07-0.47-0.31-0.54c-0.23-0.06-0.48,0.08-0.54,0.31
					c-0.06,0.23,0.08,0.48,0.31,0.54C61.88,95.82,62.12,95.68,62.19,95.45z"/>
				<path class="st1" d="M59.86,96.28c0.26,0.07,0.53-0.08,0.6-0.35c0.07-0.26-0.08-0.53-0.34-0.6c-0.26-0.07-0.53,0.08-0.6,0.35
					C59.44,95.94,59.59,96.21,59.86,96.28z"/>
				<path class="st1" d="M58.19,96.84c0.3,0.08,0.61-0.1,0.69-0.4c0.08-0.3-0.1-0.61-0.39-0.69c-0.3-0.08-0.61,0.1-0.69,0.4
					C57.72,96.46,57.89,96.76,58.19,96.84z"/>
				<path class="st1" d="M35.83,108.21c-0.3-0.08-0.61,0.1-0.69,0.4c-0.08,0.3,0.1,0.61,0.4,0.69c0.3,0.08,0.61-0.1,0.69-0.4
					C36.31,108.6,36.14,108.29,35.83,108.21z"/>
				<path class="st1" d="M33.87,109.93c-0.26-0.07-0.53,0.08-0.61,0.35c-0.07,0.26,0.09,0.53,0.35,0.61
					c0.26,0.07,0.53-0.09,0.6-0.35C34.29,110.27,34.13,110,33.87,109.93z"/>
				<path class="st1" d="M34.76,111.7c-0.26-0.07-0.53,0.08-0.61,0.35c-0.07,0.26,0.09,0.53,0.35,0.6c0.26,0.07,0.53-0.09,0.6-0.35
					C35.18,112.03,35.02,111.76,34.76,111.7z"/>
				<path class="st1" d="M36.87,110.36c-0.3-0.08-0.61,0.1-0.69,0.4c-0.08,0.3,0.1,0.61,0.4,0.69c0.3,0.08,0.61-0.1,0.69-0.4
					C37.35,110.75,37.17,110.44,36.87,110.36z"/>
				<path class="st1" d="M43.41,119c-0.3-0.08-0.61,0.1-0.69,0.4c-0.08,0.3,0.1,0.61,0.4,0.69c0.3,0.08,0.61-0.1,0.69-0.4
					C43.89,119.39,43.71,119.08,43.41,119z"/>
				<path class="st1" d="M45.63,121.01c-0.3-0.08-0.61,0.1-0.69,0.4c-0.08,0.3,0.1,0.61,0.4,0.69c0.3,0.08,0.61-0.1,0.69-0.4
					C46.1,121.4,45.93,121.09,45.63,121.01z"/>
				<path class="st1" d="M43.87,120.47c-0.08,0.3,0.1,0.61,0.4,0.69c0.3,0.08,0.61-0.1,0.69-0.4c0.08-0.3-0.1-0.61-0.39-0.69
					C44.26,119.99,43.95,120.17,43.87,120.47z"/>
				<path class="st1" d="M56.53,97.53c0.36,0.1,0.73-0.12,0.82-0.48c0.1-0.36-0.11-0.72-0.47-0.82c-0.36-0.1-0.73,0.12-0.82,0.47
					C55.96,97.07,56.18,97.44,56.53,97.53z"/>
				<path class="st1" d="M54.78,98.21c0.39,0.1,0.79-0.13,0.89-0.52c0.11-0.39-0.12-0.78-0.51-0.89c-0.39-0.1-0.79,0.13-0.89,0.51
					C54.16,97.7,54.4,98.1,54.78,98.21z"/>
				<path class="st1" d="M37.95,106.47c-0.39-0.1-0.79,0.13-0.89,0.51c-0.1,0.39,0.13,0.78,0.51,0.89c0.39,0.1,0.79-0.13,0.89-0.52
					C38.57,106.98,38.34,106.58,37.95,106.47z"/>
				<path class="st1" d="M39.22,109.01c-0.39-0.11-0.79,0.13-0.89,0.51c-0.1,0.38,0.13,0.78,0.51,0.89c0.39,0.1,0.79-0.13,0.89-0.52
					C39.84,109.51,39.61,109.11,39.22,109.01z"/>
				<path class="st1" d="M43.86,115.96c0.11-0.39-0.12-0.78-0.51-0.89c-0.39-0.1-0.79,0.13-0.89,0.51c-0.1,0.38,0.13,0.78,0.51,0.89
					C43.35,116.58,43.75,116.35,43.86,115.96z"/>
				<path class="st1" d="M45.38,117.56c0.11-0.39-0.12-0.78-0.51-0.89c-0.39-0.1-0.79,0.13-0.89,0.51c-0.1,0.39,0.13,0.79,0.51,0.89
					C44.87,118.17,45.27,117.95,45.38,117.56z"/>
				<path class="st1" d="M46.48,118.16c-0.39-0.1-0.79,0.12-0.89,0.51c-0.1,0.39,0.13,0.78,0.51,0.89c0.39,0.1,0.79-0.13,0.89-0.51
					C47.1,118.66,46.87,118.26,46.48,118.16z"/>
				<path class="st1" d="M52.66,99.31c0.48,0.13,0.96-0.15,1.09-0.63c0.13-0.47-0.15-0.96-0.62-1.08c-0.48-0.13-0.96,0.15-1.09,0.63
					C51.9,98.69,52.18,99.18,52.66,99.31z"/>
				<path class="st1" d="M52.98,100.49c-0.12,0.47,0.15,0.96,0.63,1.09c0.48,0.13,0.96-0.15,1.09-0.63
					c0.13-0.47-0.15-0.96-0.63-1.08C53.6,99.73,53.11,100.02,52.98,100.49z"/>
				<path class="st1" d="M55.48,102.24c-0.48-0.13-0.96,0.15-1.09,0.63c-0.12,0.47,0.16,0.96,0.63,1.09
					c0.48,0.13,0.96-0.15,1.09-0.63C56.23,102.85,55.95,102.37,55.48,102.24z"/>
				<path class="st1" d="M54.99,99.34c-0.1,0.38,0.13,0.79,0.51,0.89c0.39,0.1,0.79-0.13,0.89-0.52c0.11-0.39-0.12-0.78-0.51-0.89
					C55.5,98.72,55.1,98.95,54.99,99.34z"/>
				<path class="st1" d="M57.05,100.88c-0.39-0.1-0.79,0.13-0.89,0.51c-0.1,0.38,0.13,0.78,0.51,0.89c0.39,0.1,0.79-0.13,0.89-0.51
					C57.67,101.38,57.44,100.98,57.05,100.88z"/>
				<path class="st1" d="M56.65,98.44c-0.09,0.36,0.12,0.72,0.47,0.82c0.36,0.1,0.73-0.11,0.82-0.48c0.1-0.35-0.11-0.72-0.47-0.82
					C57.11,97.87,56.75,98.08,56.65,98.44z"/>
				<path class="st1" d="M58.38,99.64c-0.36-0.1-0.73,0.12-0.82,0.47c-0.09,0.35,0.12,0.72,0.47,0.82c0.36,0.1,0.73-0.12,0.82-0.48
					C58.95,100.1,58.74,99.73,58.38,99.64z"/>
				<path class="st1" d="M58.3,97.65c-0.08,0.3,0.1,0.61,0.4,0.69c0.3,0.08,0.61-0.1,0.69-0.4c0.08-0.3-0.1-0.61-0.39-0.69
					C58.69,97.17,58.38,97.35,58.3,97.65z"/>
				<path class="st1" d="M59.7,98.63c-0.3-0.08-0.61,0.1-0.69,0.4c-0.08,0.3,0.1,0.61,0.4,0.69c0.3,0.08,0.61-0.1,0.69-0.4
					C60.17,99.02,60,98.71,59.7,98.63z"/>
				<path class="st1" d="M61.02,97.62c-0.26-0.07-0.53,0.08-0.6,0.35c-0.07,0.26,0.08,0.53,0.35,0.6c0.26,0.07,0.53-0.08,0.6-0.35
					C61.44,97.95,61.28,97.69,61.02,97.62z"/>
				<path class="st1" d="M60.84,97.1c0.07-0.26-0.08-0.53-0.34-0.6c-0.26-0.07-0.53,0.08-0.6,0.35c-0.07,0.26,0.08,0.53,0.35,0.6
					C60.5,97.52,60.77,97.37,60.84,97.1z"/>
				<path class="st1" d="M62.49,96.55c-0.24-0.06-0.48,0.08-0.54,0.31c-0.06,0.23,0.08,0.48,0.31,0.54
					c0.23,0.06,0.48-0.08,0.54-0.31C62.86,96.86,62.72,96.62,62.49,96.55z"/>
				<path class="st1" d="M63.86,95.02c0.05-0.2-0.07-0.4-0.26-0.46c-0.2-0.05-0.4,0.07-0.46,0.27c-0.05,0.2,0.06,0.4,0.26,0.46
					C63.6,95.34,63.8,95.22,63.86,95.02z"/>
				<path class="st1" d="M32.75,112.86c-0.2-0.05-0.4,0.06-0.46,0.26c-0.05,0.2,0.06,0.4,0.26,0.46c0.2,0.05,0.4-0.06,0.46-0.26
					C33.06,113.11,32.94,112.91,32.75,112.86z"/>
				<path class="st1" d="M43.49,122.8c-0.2-0.05-0.4,0.06-0.46,0.26c-0.05,0.2,0.06,0.4,0.26,0.46c0.2,0.05,0.4-0.06,0.46-0.26
					C43.81,123.06,43.69,122.86,43.49,122.8z"/>
				<path class="st1" d="M44.81,123.86c-0.2-0.05-0.4,0.06-0.46,0.26c-0.05,0.2,0.06,0.4,0.26,0.46c0.2,0.05,0.4-0.06,0.46-0.26
					C45.12,124.11,45.01,123.91,44.81,123.86z"/>
				<path class="st1" d="M32.1,111.72c-0.2-0.05-0.4,0.06-0.46,0.26c-0.05,0.2,0.06,0.4,0.26,0.46c0.2,0.05,0.4-0.06,0.46-0.26
					C32.41,111.98,32.3,111.78,32.1,111.72z"/>
				<path class="st1" d="M63.97,95.61c-0.2-0.05-0.4,0.06-0.46,0.26c-0.05,0.2,0.06,0.4,0.26,0.46c0.2,0.05,0.4-0.06,0.46-0.26
					C64.28,95.86,64.16,95.66,63.97,95.61z"/>
				<path class="st1" d="M66.59,94.18c-0.08-0.02-0.16,0.03-0.19,0.11c-0.02,0.08,0.03,0.16,0.11,0.19
					c0.08,0.02,0.16-0.03,0.18-0.11C66.72,94.29,66.67,94.2,66.59,94.18z"/>
				<path class="st1" d="M28.72,115.26c-0.02,0.08,0.03,0.16,0.11,0.19c0.08,0.02,0.16-0.03,0.18-0.11
					c0.02-0.08-0.03-0.16-0.11-0.19C28.82,115.13,28.74,115.17,28.72,115.26z"/>
				<path class="st1" d="M43.39,128.55c-0.02,0.08,0.03,0.16,0.11,0.19c0.08,0.02,0.16-0.03,0.18-0.11c0.02-0.08-0.03-0.16-0.1-0.19
					C43.49,128.42,43.41,128.47,43.39,128.55z"/>
				<path class="st1" d="M65.36,94.58c0.04-0.13-0.04-0.27-0.17-0.3c-0.13-0.04-0.27,0.04-0.31,0.17c-0.04,0.13,0.04,0.27,0.17,0.31
					C65.19,94.79,65.32,94.71,65.36,94.58z"/>
				<path class="st1" d="M30.74,114.15c-0.13-0.04-0.27,0.04-0.3,0.17c-0.04,0.13,0.04,0.27,0.17,0.31c0.13,0.03,0.27-0.04,0.3-0.18
					C30.95,114.32,30.87,114.18,30.74,114.15z"/>
				<path class="st1" d="M30.36,113.44c-0.13-0.04-0.27,0.04-0.3,0.17c-0.04,0.13,0.04,0.27,0.17,0.31c0.13,0.04,0.27-0.04,0.3-0.18
					C30.57,113.61,30.49,113.48,30.36,113.44z"/>
				<path class="st1" d="M43.63,126.13c0.04-0.13-0.04-0.27-0.17-0.3c-0.13-0.04-0.27,0.04-0.3,0.17c-0.04,0.13,0.04,0.27,0.17,0.31
					C43.46,126.34,43.6,126.27,43.63,126.13z"/>
				<path class="st1" d="M44.15,126.36c-0.13-0.04-0.27,0.04-0.3,0.17c-0.04,0.13,0.04,0.27,0.17,0.31c0.13,0.03,0.27-0.04,0.3-0.18
					C44.37,126.52,44.29,126.39,44.15,126.36z"/>
				<path class="st1" d="M65.4,94.93c-0.13-0.04-0.27,0.04-0.3,0.17c-0.04,0.13,0.04,0.27,0.17,0.31c0.13,0.03,0.27-0.04,0.3-0.18
					C65.61,95.1,65.53,94.97,65.4,94.93z"/>
			</g>
			<g>
				<path class="st2" d="M40.55,84.16c-0.53,0.49-0.56,1.33-0.06,1.86c0.49,0.53,1.33,0.56,1.86,0.06c0.53-0.5,0.56-1.33,0.06-1.86
					C41.91,83.69,41.08,83.66,40.55,84.16z"/>
				<path class="st2" d="M40.33,87.8c-0.53,0.49-0.56,1.33-0.06,1.86c0.49,0.53,1.33,0.56,1.86,0.06c0.53-0.5,0.56-1.33,0.06-1.86
					C41.7,87.34,40.86,87.31,40.33,87.8z"/>
				<path class="st2" d="M41.91,93.09c0.53-0.5,0.56-1.33,0.06-1.86c-0.49-0.53-1.33-0.56-1.86-0.06c-0.53,0.49-0.56,1.33-0.06,1.86
					C40.55,93.55,41.38,93.58,41.91,93.09z"/>
				<path class="st2" d="M45.84,90.74c0.53-0.5,0.56-1.33,0.06-1.86c-0.49-0.53-1.33-0.56-1.86-0.06c-0.53,0.49-0.56,1.33-0.06,1.86
					C44.47,91.21,45.31,91.24,45.84,90.74z"/>
				<path class="st2" d="M44.08,93.19c-0.53,0.49-0.56,1.33-0.06,1.86c0.49,0.53,1.33,0.56,1.86,0.07c0.53-0.5,0.56-1.33,0.06-1.86
					C45.44,92.72,44.61,92.69,44.08,93.19z"/>
				<path class="st2" d="M44.67,84.45c-0.53,0.49-0.56,1.33-0.06,1.86c0.49,0.53,1.33,0.56,1.86,0.06c0.53-0.5,0.56-1.33,0.06-1.86
					C46.04,83.98,45.2,83.95,44.67,84.45z"/>
				<path class="st2" d="M37.83,90.26c0.6-0.57,0.64-1.51,0.07-2.11c-0.56-0.61-1.51-0.64-2.11-0.07c-0.6,0.56-0.64,1.51-0.07,2.11
					C36.28,90.79,37.22,90.83,37.83,90.26z"/>
				<path class="st2" d="M38.21,85.8c0.6-0.57,0.64-1.51,0.07-2.11c-0.56-0.61-1.51-0.64-2.11-0.07c-0.6,0.56-0.64,1.51-0.07,2.11
					C36.65,86.33,37.6,86.37,38.21,85.8z"/>
				<path class="st2" d="M37.83,94.31c0.6-0.57,0.64-1.51,0.07-2.11c-0.56-0.61-1.51-0.64-2.11-0.07c-0.6,0.56-0.64,1.51-0.07,2.11
					C36.28,94.84,37.22,94.88,37.83,94.31z"/>
				<path class="st2" d="M36.26,96.34c-0.6,0.56-0.64,1.51-0.07,2.11c0.56,0.6,1.51,0.63,2.11,0.07c0.6-0.57,0.64-1.51,0.07-2.11
					C37.81,95.8,36.86,95.77,36.26,96.34z"/>
				<path class="st2" d="M40.29,94.63c-0.53,0.49-0.56,1.33-0.06,1.86c0.49,0.53,1.33,0.56,1.86,0.07c0.53-0.5,0.56-1.33,0.06-1.86
					C41.65,94.16,40.82,94.13,40.29,94.63z"/>
				<path class="st2" d="M32.52,99.26c-0.53,0.49-0.56,1.33-0.06,1.86c0.49,0.53,1.33,0.56,1.86,0.06c0.53-0.5,0.56-1.33,0.06-1.86
					C33.88,98.79,33.05,98.76,32.52,99.26z"/>
				<path class="st2" d="M33.68,97.5c0.53-0.5,0.56-1.33,0.06-1.86c-0.49-0.53-1.33-0.56-1.86-0.06c-0.53,0.49-0.56,1.33-0.06,1.86
					C32.32,97.97,33.15,98,33.68,97.5z"/>
				<path class="st2" d="M29.41,96.08c0.53-0.5,0.56-1.33,0.06-1.86c-0.49-0.53-1.33-0.56-1.86-0.06c-0.53,0.49-0.56,1.33-0.06,1.86
					C28.05,96.55,28.88,96.58,29.41,96.08z"/>
				<path class="st2" d="M29.41,89.64c0.53-0.5,0.56-1.33,0.06-1.86c-0.49-0.53-1.33-0.56-1.86-0.06c-0.53,0.49-0.56,1.33-0.06,1.86
					C28.05,90.1,28.88,90.13,29.41,89.64z"/>
				<path class="st2" d="M29.76,85.78c0.53-0.5,0.56-1.33,0.06-1.86c-0.49-0.53-1.33-0.56-1.86-0.06c-0.53,0.49-0.56,1.33-0.06,1.86
					C28.39,86.24,29.23,86.27,29.76,85.78z"/>
				<path class="st2" d="M29.82,100.07c0.53-0.5,0.56-1.33,0.06-1.86c-0.49-0.53-1.33-0.56-1.86-0.06
					c-0.53,0.49-0.56,1.33-0.06,1.86C28.46,100.53,29.29,100.56,29.82,100.07z"/>
				<path class="st2" d="M29.09,101.76c-0.53,0.49-0.56,1.33-0.06,1.86c0.49,0.53,1.33,0.56,1.86,0.07c0.53-0.5,0.56-1.33,0.06-1.86
					C30.46,101.29,29.63,101.26,29.09,101.76z"/>
				<path class="st2" d="M33.43,93.67c0.53-0.5,0.56-1.33,0.06-1.86c-0.49-0.53-1.33-0.56-1.86-0.07c-0.53,0.49-0.56,1.33-0.06,1.86
					C32.07,94.14,32.9,94.17,33.43,93.67z"/>
				<path class="st2" d="M33.43,89.78c0.53-0.5,0.56-1.33,0.06-1.86c-0.49-0.53-1.33-0.56-1.86-0.06c-0.53,0.49-0.56,1.33-0.06,1.86
					C32.07,90.24,32.9,90.27,33.43,89.78z"/>
				<path class="st2" d="M33.84,85.85c0.53-0.5,0.56-1.33,0.06-1.86c-0.49-0.53-1.33-0.56-1.86-0.06c-0.53,0.49-0.56,1.33-0.06,1.86
					C32.48,86.32,33.31,86.35,33.84,85.85z"/>
				<path class="st2" d="M61.71,88.27c-0.25,0.24-0.26,0.63-0.03,0.88c0.24,0.25,0.63,0.27,0.89,0.03c0.25-0.23,0.27-0.63,0.03-0.88
					C62.36,88.05,61.97,88.04,61.71,88.27z"/>
				<path class="st2" d="M59.16,87.46c-0.28,0.26-0.3,0.7-0.03,0.99c0.26,0.28,0.71,0.3,0.99,0.03c0.28-0.26,0.3-0.7,0.03-0.98
					C59.88,87.21,59.44,87.19,59.16,87.46z"/>
				<path class="st2" d="M56.73,86.74c-0.32,0.3-0.34,0.81-0.04,1.13c0.3,0.32,0.81,0.34,1.13,0.04c0.33-0.3,0.34-0.8,0.04-1.13
					C57.56,86.45,57.05,86.44,56.73,86.74z"/>
				<path class="st2" d="M21.94,85.73c0.32-0.3,0.34-0.81,0.04-1.13c-0.3-0.32-0.81-0.34-1.13-0.04c-0.32,0.3-0.34,0.81-0.04,1.13
					C21.11,86.01,21.62,86.03,21.94,85.73z"/>
				<path class="st2" d="M17.31,85.16c-0.28,0.26-0.3,0.71-0.03,0.99c0.27,0.28,0.71,0.3,1,0.03c0.28-0.26,0.3-0.71,0.04-0.99
					C18.04,84.91,17.6,84.89,17.31,85.16z"/>
				<path class="st2" d="M18.02,88.99c0.28-0.26,0.3-0.71,0.04-0.99c-0.27-0.28-0.71-0.3-0.99-0.03c-0.28,0.26-0.3,0.71-0.03,0.99
					C17.3,89.24,17.74,89.26,18.02,88.99z"/>
				<path class="st2" d="M21.62,87.97c-0.3-0.33-0.81-0.34-1.13-0.04c-0.32,0.3-0.34,0.81-0.04,1.13c0.3,0.32,0.81,0.34,1.13,0.04
					C21.9,88.8,21.92,88.3,21.62,87.97z"/>
				<path class="st2" d="M22.97,104.48c0.32-0.3,0.34-0.81,0.04-1.13c-0.3-0.33-0.81-0.34-1.14-0.04c-0.32,0.3-0.34,0.81-0.04,1.13
					C22.14,104.77,22.65,104.79,22.97,104.48z"/>
				<path class="st2" d="M23.04,107.41c-0.32,0.3-0.34,0.81-0.04,1.13c0.3,0.32,0.81,0.34,1.13,0.04c0.32-0.3,0.34-0.81,0.04-1.13
					C23.87,107.13,23.37,107.11,23.04,107.41z"/>
				<path class="st2" d="M23.55,106.64c0.32-0.3,0.34-0.81,0.04-1.13c-0.3-0.32-0.81-0.34-1.13-0.04c-0.32,0.3-0.34,0.81-0.04,1.13
					C22.72,106.93,23.22,106.95,23.55,106.64z"/>
				<path class="st2" d="M55.56,86.15c-0.36-0.39-0.96-0.41-1.35-0.05c-0.38,0.36-0.4,0.96-0.05,1.35c0.36,0.39,0.97,0.41,1.35,0.05
					C55.9,87.14,55.92,86.53,55.56,86.15z"/>
				<path class="st2" d="M53.05,85.54c-0.39-0.42-1.05-0.44-1.47-0.05c-0.41,0.39-0.44,1.04-0.05,1.46
					c0.39,0.42,1.05,0.44,1.47,0.05C53.42,86.61,53.44,85.95,53.05,85.54z"/>
				<path class="st2" d="M25.81,85.55c0.42-0.39,0.44-1.04,0.05-1.46c-0.39-0.42-1.05-0.44-1.47-0.05
					c-0.41,0.39-0.44,1.05-0.05,1.46C24.73,85.92,25.39,85.94,25.81,85.55z"/>
				<path class="st2" d="M25.43,89.57c0.42-0.39,0.44-1.04,0.05-1.46c-0.39-0.42-1.05-0.44-1.47-0.05
					c-0.41,0.39-0.44,1.04-0.05,1.46C24.36,89.94,25.01,89.96,25.43,89.57z"/>
				<path class="st2" d="M24.43,98.5c-0.41,0.39-0.44,1.04-0.05,1.46c0.39,0.42,1.05,0.44,1.46,0.05c0.42-0.39,0.44-1.04,0.05-1.46
					C25.5,98.14,24.85,98.11,24.43,98.5z"/>
				<path class="st2" d="M26.48,103.09c0.42-0.39,0.44-1.04,0.05-1.46c-0.39-0.42-1.05-0.44-1.47-0.05
					c-0.41,0.39-0.44,1.04-0.05,1.46C25.41,103.45,26.06,103.48,26.48,103.09z"/>
				<path class="st2" d="M25.89,104.59c-0.41,0.39-0.44,1.04-0.05,1.46c0.39,0.42,1.05,0.44,1.47,0.05
					c0.42-0.39,0.44-1.04,0.05-1.46C26.96,104.23,26.31,104.2,25.89,104.59z"/>
				<path class="st2" d="M48.2,84.88c-0.5,0.48-0.53,1.28-0.06,1.79c0.48,0.51,1.28,0.54,1.79,0.06c0.51-0.47,0.54-1.27,0.06-1.79
					C49.51,84.44,48.71,84.41,48.2,84.88z"/>
				<path class="st2" d="M47.64,88.35c-0.51,0.48-0.53,1.28-0.06,1.79c0.48,0.51,1.28,0.54,1.79,0.06c0.51-0.47,0.54-1.28,0.06-1.79
					C48.95,87.9,48.15,87.87,47.64,88.35z"/>
				<path class="st2" d="M47.55,92.28c-0.5,0.48-0.53,1.28-0.06,1.79c0.48,0.51,1.28,0.54,1.79,0.06c0.51-0.47,0.54-1.27,0.06-1.79
					C48.86,91.83,48.06,91.8,47.55,92.28z"/>
				<path class="st2" d="M50.94,88.47c-0.41,0.39-0.44,1.04-0.05,1.46c0.39,0.42,1.05,0.44,1.47,0.05c0.42-0.39,0.44-1.04,0.05-1.46
					C52.01,88.11,51.36,88.09,50.94,88.47z"/>
				<path class="st2" d="M50.8,91.84c-0.41,0.39-0.44,1.04-0.05,1.46c0.39,0.42,1.04,0.44,1.47,0.05c0.42-0.39,0.44-1.04,0.05-1.46
					C51.88,91.47,51.22,91.45,50.8,91.84z"/>
				<path class="st2" d="M53.62,88.64c-0.38,0.36-0.4,0.96-0.05,1.35c0.36,0.39,0.97,0.41,1.35,0.05c0.39-0.36,0.41-0.96,0.05-1.35
					C54.61,88.3,54.01,88.28,53.62,88.64z"/>
				<path class="st2" d="M53.45,91.33c-0.38,0.36-0.4,0.96-0.05,1.35c0.36,0.39,0.97,0.41,1.35,0.05c0.39-0.36,0.41-0.96,0.05-1.35
					C54.45,91,53.84,90.98,53.45,91.33z"/>
				<path class="st2" d="M56.21,88.93c-0.32,0.3-0.34,0.81-0.04,1.13c0.3,0.32,0.81,0.34,1.13,0.04c0.32-0.3,0.34-0.81,0.04-1.13
					C57.04,88.64,56.54,88.62,56.21,88.93z"/>
				<path class="st2" d="M56.02,91.13c-0.32,0.3-0.34,0.81-0.04,1.13c0.3,0.32,0.81,0.34,1.13,0.04c0.32-0.3,0.34-0.81,0.04-1.13
					C56.86,90.84,56.35,90.82,56.02,91.13z"/>
				<path class="st2" d="M58.54,90.9c-0.28,0.26-0.3,0.71-0.03,0.99c0.26,0.28,0.71,0.3,0.99,0.03c0.28-0.26,0.3-0.7,0.04-0.98
					C59.26,90.65,58.82,90.64,58.54,90.9z"/>
				<path class="st2" d="M58.74,89.16c-0.28,0.26-0.29,0.71-0.03,0.99c0.26,0.28,0.71,0.3,0.99,0.03c0.28-0.26,0.3-0.7,0.04-0.99
					C59.46,88.91,59.02,88.9,58.74,89.16z"/>
				<path class="st2" d="M61.21,90.72c-0.25,0.24-0.27,0.63-0.03,0.88c0.24,0.25,0.63,0.27,0.89,0.03c0.25-0.23,0.27-0.63,0.03-0.88
					C61.86,90.5,61.47,90.49,61.21,90.72z"/>
				<path class="st2" d="M64.18,89.16c-0.21,0.2-0.23,0.53-0.03,0.75c0.2,0.22,0.54,0.23,0.75,0.03c0.22-0.2,0.23-0.54,0.03-0.75
					C64.73,88.97,64.4,88.96,64.18,89.16z"/>
				<path class="st2" d="M14,87.86c-0.21,0.2-0.23,0.53-0.03,0.75c0.2,0.22,0.54,0.23,0.75,0.03c0.21-0.2,0.23-0.54,0.03-0.75
					C14.55,87.67,14.21,87.66,14,87.86z"/>
				<path class="st2" d="M20.24,108.01c-0.2-0.21-0.54-0.23-0.75-0.03c-0.21,0.2-0.23,0.53-0.03,0.75c0.2,0.22,0.54,0.23,0.75,0.03
					C20.43,108.56,20.44,108.23,20.24,108.01z"/>
				<path class="st2" d="M20.29,110.25c-0.22,0.2-0.23,0.53-0.03,0.75c0.2,0.22,0.54,0.23,0.75,0.03c0.21-0.2,0.23-0.54,0.03-0.75
					C20.84,110.06,20.51,110.05,20.29,110.25z"/>
				<path class="st2" d="M14.07,86c-0.21,0.2-0.23,0.53-0.03,0.75c0.2,0.22,0.54,0.23,0.75,0.03c0.22-0.2,0.23-0.54,0.03-0.75
					C14.62,85.82,14.28,85.8,14.07,86z"/>
				<path class="st2" d="M63.85,90.7c-0.21,0.2-0.23,0.53-0.03,0.75c0.2,0.22,0.54,0.23,0.75,0.03c0.22-0.2,0.23-0.54,0.03-0.75
					C64.4,90.51,64.06,90.5,63.85,90.7z"/>
				<path class="st2" d="M68.84,90.98c-0.08-0.09-0.22-0.09-0.3-0.01c-0.09,0.08-0.09,0.22-0.01,0.3c0.08,0.09,0.22,0.09,0.3,0.01
					C68.92,91.2,68.92,91.07,68.84,90.98z"/>
				<path class="st2" d="M8.07,87.75c-0.09,0.08-0.09,0.22-0.01,0.31c0.08,0.09,0.22,0.09,0.3,0.01c0.09-0.08,0.09-0.22,0.01-0.31
					C8.3,87.67,8.16,87.67,8.07,87.75z"/>
				<path class="st2" d="M15.79,114.88c-0.09,0.08-0.09,0.22-0.01,0.31c0.08,0.09,0.22,0.09,0.3,0.01c0.09-0.08,0.09-0.22,0.01-0.3
					C16.01,114.81,15.88,114.8,15.79,114.88z"/>
				<path class="st2" d="M66.58,90.02c-0.14,0.13-0.15,0.36-0.02,0.5c0.14,0.14,0.36,0.15,0.5,0.02c0.14-0.13,0.15-0.36,0.02-0.5
					C66.94,89.89,66.72,89.88,66.58,90.02z"/>
				<path class="st2" d="M10.85,87.91c-0.14,0.13-0.15,0.36-0.02,0.5c0.14,0.14,0.36,0.15,0.5,0.02c0.14-0.13,0.15-0.36,0.01-0.5
					C11.21,87.79,10.99,87.78,10.85,87.91z"/>
				<path class="st2" d="M10.92,86.78c-0.15,0.13-0.15,0.36-0.02,0.5c0.14,0.14,0.36,0.15,0.5,0.02c0.14-0.13,0.15-0.36,0.02-0.5
					C11.29,86.65,11.06,86.64,10.92,86.78z"/>
				<path class="st2" d="M17.92,111.64c-0.13-0.14-0.36-0.15-0.49-0.02c-0.15,0.13-0.15,0.36-0.02,0.5c0.14,0.14,0.36,0.15,0.5,0.02
					C18.05,112.01,18.06,111.79,17.92,111.64z"/>
				<path class="st2" d="M17.87,112.78c-0.15,0.13-0.15,0.36-0.02,0.5c0.13,0.14,0.36,0.15,0.5,0.02c0.14-0.13,0.15-0.35,0.02-0.5
					C18.24,112.66,18.01,112.65,17.87,112.78z"/>
				<path class="st2" d="M66.34,90.97c-0.15,0.13-0.15,0.36-0.02,0.5c0.13,0.14,0.36,0.15,0.5,0.02c0.14-0.13,0.15-0.36,0.02-0.5
					C66.7,90.84,66.48,90.83,66.34,90.97z"/>
			</g>
			<g>
				<path class="st3" d="M52.66,75.19c0.54-0.13,0.87-0.66,0.75-1.2c-0.12-0.54-0.66-0.87-1.2-0.75c-0.54,0.12-0.87,0.66-0.75,1.2
					C51.59,74.98,52.12,75.32,52.66,75.19z"/>
				<path class="st3" d="M41.99,68.76c0.54-0.13,0.87-0.66,0.75-1.2c-0.12-0.54-0.66-0.87-1.2-0.75c-0.53,0.12-0.87,0.66-0.75,1.2
					C40.92,68.55,41.46,68.89,41.99,68.76z"/>
				<path class="st3" d="M39.25,70.18c0.12,0.53,0.66,0.87,1.2,0.75c0.54-0.13,0.87-0.66,0.75-1.2c-0.12-0.54-0.66-0.87-1.2-0.75
					C39.46,69.11,39.12,69.64,39.25,70.18z"/>
				<path class="st3" d="M37.79,72.82c-0.53,0.12-0.87,0.66-0.74,1.2c0.12,0.53,0.66,0.87,1.2,0.75c0.54-0.13,0.87-0.66,0.75-1.2
					C38.87,73.03,38.33,72.69,37.79,72.82z"/>
				<path class="st3" d="M36.54,75.61c-0.53,0.12-0.87,0.66-0.75,1.2c0.12,0.53,0.66,0.87,1.2,0.75c0.53-0.13,0.87-0.66,0.75-1.2
					C37.61,75.83,37.08,75.49,36.54,75.61z"/>
				<path class="st3" d="M35.89,78.1c-0.54,0.12-0.87,0.66-0.75,1.2c0.12,0.54,0.66,0.87,1.2,0.75c0.54-0.13,0.87-0.66,0.75-1.2
					C36.96,78.32,36.42,77.98,35.89,78.1z"/>
				<path class="st3" d="M51.5,76.33c-0.12-0.54-0.66-0.87-1.2-0.75c-0.54,0.12-0.87,0.66-0.75,1.2c0.12,0.53,0.66,0.87,1.2,0.75
					C51.28,77.4,51.62,76.86,51.5,76.33z"/>
				<path class="st3" d="M48.72,78.41c-0.54,0.12-0.87,0.66-0.75,1.2c0.12,0.53,0.66,0.87,1.2,0.75c0.54-0.13,0.87-0.66,0.75-1.2
					C49.8,78.62,49.26,78.29,48.72,78.41z"/>
				<path class="st3" d="M50.04,74.07c0.7-0.17,1.14-0.86,0.98-1.57c-0.16-0.7-0.86-1.14-1.56-0.98c-0.7,0.16-1.14,0.86-0.98,1.56
					C48.64,73.79,49.34,74.23,50.04,74.07z"/>
				<path class="st3" d="M47.18,72.22c0.71-0.17,1.15-0.87,0.98-1.58c-0.16-0.71-0.87-1.15-1.58-0.98
					c-0.71,0.16-1.15,0.87-0.98,1.58C45.77,71.94,46.47,72.38,47.18,72.22z"/>
				<path class="st3" d="M44.41,70.28c0.62-0.15,1-0.76,0.86-1.38c-0.14-0.62-0.76-1.01-1.38-0.86c-0.62,0.14-1,0.76-0.86,1.38
					C43.17,70.03,43.79,70.42,44.41,70.28z"/>
				<path class="st3" d="M43.53,71.19c-0.14-0.62-0.76-1-1.38-0.86c-0.62,0.14-1,0.76-0.86,1.38c0.14,0.62,0.76,1,1.38,0.86
					C43.29,72.42,43.67,71.8,43.53,71.19z"/>
				<path class="st3" d="M40.84,72.73c-0.62,0.14-1,0.76-0.86,1.38c0.14,0.62,0.76,1,1.38,0.86c0.62-0.15,1-0.76,0.86-1.38
					C42.07,72.97,41.45,72.58,40.84,72.73z"/>
				<path class="st3" d="M39.55,75.23c-0.62,0.14-1,0.76-0.86,1.38c0.14,0.62,0.76,1,1.38,0.86c0.62-0.15,1-0.76,0.86-1.38
					C40.78,75.48,40.17,75.09,39.55,75.23z"/>
				<path class="st3" d="M38.69,77.74c-0.62,0.14-1,0.76-0.86,1.38c0.14,0.62,0.76,1,1.38,0.86c0.62-0.14,1-0.76,0.86-1.38
					C39.92,77.99,39.31,77.6,38.69,77.74z"/>
				<path class="st3" d="M43.86,73.55c0.16,0.7,0.87,1.14,1.57,0.98c0.71-0.17,1.15-0.87,0.98-1.58c-0.16-0.71-0.87-1.15-1.57-0.98
					C44.14,72.14,43.69,72.85,43.86,73.55z"/>
				<path class="st3" d="M44.91,75.5c-0.16-0.71-0.87-1.15-1.58-0.98c-0.71,0.16-1.15,0.87-0.98,1.58c0.16,0.7,0.87,1.14,1.57,0.98
					C44.63,76.91,45.07,76.21,44.91,75.5z"/>
				<path class="st3" d="M42.2,77.32c-0.7,0.16-1.15,0.87-0.98,1.58c0.16,0.7,0.87,1.14,1.57,0.98c0.71-0.16,1.15-0.87,0.98-1.57
					C43.61,77.59,42.9,77.15,42.2,77.32z"/>
				<path class="st3" d="M48.97,75.2c-0.16-0.7-0.86-1.14-1.56-0.98c-0.7,0.16-1.14,0.86-0.98,1.57c0.16,0.7,0.86,1.14,1.56,0.98
					C48.7,76.6,49.13,75.9,48.97,75.2z"/>
				<path class="st3" d="M45.72,77.43c-0.7,0.16-1.14,0.86-0.98,1.56c0.16,0.7,0.86,1.14,1.56,0.98c0.7-0.17,1.14-0.86,0.98-1.57
					C47.12,77.71,46.42,77.27,45.72,77.43z"/>
				<path class="st3" d="M61.75,82.02c-0.06-0.24-0.29-0.39-0.53-0.33c-0.24,0.06-0.39,0.29-0.33,0.53
					c0.06,0.24,0.29,0.39,0.53,0.33C61.66,82.5,61.81,82.26,61.75,82.02z"/>
				<path class="st3" d="M60.17,81.25c0.26-0.06,0.43-0.32,0.37-0.59c-0.06-0.27-0.33-0.43-0.59-0.37
					c-0.26,0.06-0.43,0.33-0.37,0.59C59.64,81.15,59.91,81.31,60.17,81.25z"/>
				<path class="st3" d="M58.97,80.09c0.3-0.07,0.49-0.37,0.42-0.68c-0.07-0.3-0.37-0.49-0.68-0.43c-0.3,0.07-0.49,0.37-0.42,0.68
					C58.37,79.97,58.67,80.17,58.97,80.09z"/>
				<path class="st3" d="M37.22,65.9c0.3-0.07,0.49-0.37,0.42-0.67c-0.07-0.31-0.37-0.49-0.68-0.42c-0.3,0.07-0.49,0.37-0.42,0.68
					C36.61,65.78,36.91,65.97,37.22,65.9z"/>
				<path class="st3" d="M34.59,63.92c-0.27,0.06-0.43,0.33-0.37,0.59c0.06,0.27,0.33,0.43,0.59,0.37c0.27-0.06,0.44-0.33,0.37-0.59
					C35.12,64.02,34.86,63.86,34.59,63.92z"/>
				<path class="st3" d="M33.67,66.51c0.27-0.06,0.43-0.33,0.37-0.59c-0.06-0.27-0.33-0.44-0.6-0.37c-0.27,0.06-0.43,0.33-0.37,0.59
					C33.14,66.4,33.41,66.57,33.67,66.51z"/>
				<path class="st3" d="M35.81,67.83c0.3-0.07,0.49-0.37,0.42-0.67c-0.07-0.31-0.37-0.49-0.68-0.42c-0.3,0.07-0.49,0.37-0.42,0.68
					C35.2,67.71,35.5,67.9,35.81,67.83z"/>
				<path class="st3" d="M30.98,76.62c-0.3,0.07-0.49,0.37-0.42,0.68c0.07,0.3,0.37,0.49,0.68,0.42c0.3-0.07,0.49-0.37,0.42-0.68
					C31.59,76.74,31.28,76.55,30.98,76.62z"/>
				<path class="st3" d="M30.24,79.53c-0.3,0.07-0.49,0.37-0.42,0.68c0.07,0.3,0.37,0.49,0.68,0.42c0.3-0.07,0.49-0.37,0.42-0.68
					C30.85,79.65,30.55,79.46,30.24,79.53z"/>
				<path class="st3" d="M30.57,78.14c-0.3,0.07-0.49,0.37-0.42,0.68c0.07,0.3,0.37,0.49,0.68,0.42c0.3-0.07,0.49-0.37,0.42-0.67
					C31.18,78.26,30.87,78.07,30.57,78.14z"/>
				<path class="st3" d="M57.71,79.03c0.36-0.08,0.59-0.44,0.5-0.81c-0.08-0.36-0.45-0.59-0.81-0.51c-0.36,0.08-0.59,0.45-0.51,0.81
					C56.99,78.89,57.35,79.11,57.71,79.03z"/>
				<path class="st3" d="M56.35,77.84c0.39-0.09,0.63-0.48,0.54-0.87c-0.09-0.39-0.48-0.64-0.88-0.55
					c-0.39,0.09-0.63,0.48-0.55,0.88C55.56,77.68,55.95,77.93,56.35,77.84z"/>
				<path class="st3" d="M39.64,67.15c0.39-0.09,0.64-0.48,0.55-0.87c-0.09-0.4-0.48-0.64-0.88-0.55c-0.39,0.09-0.64,0.48-0.55,0.88
					C38.85,67,39.24,67.24,39.64,67.15z"/>
				<path class="st3" d="M37.11,68.93c0.09,0.39,0.48,0.64,0.88,0.55c0.39-0.09,0.64-0.48,0.55-0.87c-0.09-0.39-0.48-0.64-0.88-0.55
					C37.27,68.14,37.03,68.53,37.11,68.93z"/>
				<path class="st3" d="M34.23,74.58c-0.39,0.09-0.64,0.48-0.55,0.87c0.09,0.39,0.48,0.64,0.88,0.55c0.39-0.09,0.64-0.48,0.55-0.87
					C35.02,74.73,34.62,74.49,34.23,74.58z"/>
				<path class="st3" d="M33.54,76.68c-0.39,0.09-0.63,0.48-0.55,0.88c0.09,0.39,0.48,0.64,0.88,0.55c0.39-0.09,0.64-0.48,0.55-0.87
					C34.32,76.83,33.93,76.59,33.54,76.68z"/>
				<path class="st3" d="M32.98,78.82c-0.39,0.09-0.64,0.48-0.55,0.88c0.09,0.39,0.48,0.64,0.88,0.55c0.39-0.09,0.64-0.48,0.55-0.87
					C33.76,78.97,33.37,78.72,32.98,78.82z"/>
				<path class="st3" d="M54.57,76.59c0.48-0.11,0.78-0.59,0.67-1.07c-0.11-0.48-0.59-0.78-1.07-0.67
					c-0.48,0.11-0.78,0.59-0.67,1.07C53.61,76.41,54.08,76.71,54.57,76.59z"/>
				<path class="st3" d="M53.67,77.45c-0.11-0.48-0.59-0.78-1.07-0.67c-0.48,0.11-0.78,0.59-0.67,1.07
					c0.11,0.48,0.59,0.78,1.07,0.67C53.48,78.41,53.78,77.93,53.67,77.45z"/>
				<path class="st3" d="M51.16,79.14c-0.48,0.11-0.78,0.59-0.67,1.07c0.11,0.48,0.59,0.78,1.07,0.67c0.48-0.11,0.78-0.59,0.67-1.07
					C52.12,79.33,51.64,79.03,51.16,79.14z"/>
				<path class="st3" d="M54.57,78.02c-0.39,0.09-0.64,0.48-0.55,0.87c0.09,0.39,0.48,0.64,0.88,0.55c0.39-0.09,0.64-0.48,0.55-0.87
					C55.36,78.17,54.97,77.93,54.57,78.02z"/>
				<path class="st3" d="M53.3,80.02c-0.39,0.09-0.64,0.48-0.55,0.88c0.09,0.39,0.48,0.64,0.88,0.55c0.39-0.09,0.64-0.48,0.55-0.87
					C54.09,80.18,53.69,79.93,53.3,80.02z"/>
				<path class="st3" d="M56.96,79.57c-0.08-0.36-0.45-0.59-0.81-0.51c-0.36,0.09-0.59,0.45-0.51,0.81c0.09,0.36,0.45,0.59,0.81,0.5
					C56.82,80.29,57.05,79.93,56.96,79.57z"/>
				<path class="st3" d="M55.1,80.65c-0.36,0.09-0.59,0.45-0.5,0.81c0.09,0.36,0.45,0.59,0.81,0.5c0.36-0.08,0.59-0.44,0.5-0.81
					C55.82,80.79,55.46,80.57,55.1,80.65z"/>
				<path class="st3" d="M58.31,80.57c-0.07-0.31-0.37-0.5-0.68-0.43c-0.3,0.07-0.49,0.37-0.42,0.68c0.07,0.3,0.37,0.5,0.68,0.42
					C58.19,81.18,58.38,80.88,58.31,80.57z"/>
				<path class="st3" d="M56.74,81.43c-0.3,0.07-0.49,0.37-0.42,0.68c0.07,0.3,0.37,0.5,0.68,0.42c0.3-0.07,0.49-0.37,0.42-0.67
					C57.35,81.55,57.05,81.36,56.74,81.43z"/>
				<path class="st3" d="M58.36,82.18c-0.26,0.06-0.43,0.32-0.37,0.59c0.06,0.27,0.32,0.43,0.59,0.37c0.26-0.06,0.43-0.32,0.37-0.59
					C58.89,82.28,58.62,82.12,58.36,82.18z"/>
				<path class="st3" d="M59.09,81.18c-0.26,0.06-0.43,0.33-0.37,0.59c0.06,0.26,0.33,0.43,0.59,0.37c0.26-0.06,0.43-0.32,0.37-0.59
					C59.62,81.29,59.36,81.12,59.09,81.18z"/>
				<path class="st3" d="M60.05,83.01c-0.23,0.06-0.38,0.29-0.33,0.53c0.06,0.24,0.29,0.39,0.53,0.33c0.24-0.05,0.39-0.29,0.33-0.53
					C60.53,83.1,60.29,82.96,60.05,83.01z"/>
				<path class="st3" d="M62.42,83.1c-0.2,0.05-0.33,0.25-0.28,0.45c0.05,0.2,0.25,0.33,0.45,0.28c0.2-0.05,0.33-0.25,0.28-0.45
					C62.82,83.18,62.62,83.05,62.42,83.1z"/>
				<path class="st3" d="M31.61,64.4c-0.2,0.05-0.33,0.25-0.28,0.45c0.05,0.2,0.25,0.33,0.45,0.28c0.2-0.05,0.33-0.25,0.28-0.45
					C32.01,64.48,31.81,64.35,31.61,64.4z"/>
				<path class="st3" d="M27.87,78.63c-0.2,0.05-0.33,0.25-0.28,0.45c0.05,0.2,0.25,0.33,0.45,0.28c0.2-0.05,0.33-0.25,0.28-0.45
					C28.27,78.71,28.07,78.59,27.87,78.63z"/>
				<path class="st3" d="M27.56,80.3c-0.2,0.04-0.33,0.25-0.28,0.45c0.05,0.2,0.25,0.33,0.45,0.28c0.2-0.05,0.33-0.25,0.28-0.45
					C27.96,80.38,27.76,80.25,27.56,80.3z"/>
				<path class="st3" d="M32.76,63.57c-0.05-0.2-0.25-0.33-0.45-0.28c-0.2,0.05-0.33,0.25-0.28,0.45c0.05,0.2,0.25,0.33,0.45,0.28
					C32.68,63.97,32.81,63.77,32.76,63.57z"/>
				<path class="st3" d="M61.67,83.93c-0.2,0.05-0.33,0.25-0.28,0.45c0.05,0.2,0.25,0.33,0.45,0.28c0.2-0.05,0.33-0.25,0.28-0.45
					C62.08,84.01,61.88,83.88,61.67,83.93z"/>
				<path class="st3" d="M64.44,85.74c-0.08,0.02-0.13,0.1-0.11,0.18c0.02,0.08,0.1,0.13,0.18,0.11c0.08-0.02,0.13-0.1,0.12-0.18
					C64.61,85.78,64.53,85.73,64.44,85.74z"/>
				<path class="st3" d="M28.21,62.35c-0.02-0.08-0.1-0.13-0.18-0.11c-0.08,0.02-0.13,0.1-0.11,0.18c0.02,0.08,0.1,0.13,0.18,0.11
					C28.18,62.52,28.23,62.44,28.21,62.35z"/>
				<path class="st3" d="M23.06,81.72c0.02,0.08,0.1,0.13,0.18,0.11c0.08-0.02,0.13-0.1,0.12-0.18c-0.02-0.08-0.1-0.13-0.18-0.11
					C23.09,81.56,23.04,81.64,23.06,81.72z"/>
				<path class="st3" d="M63.58,84.47c-0.14,0.03-0.22,0.16-0.19,0.3c0.03,0.13,0.17,0.22,0.3,0.19c0.13-0.03,0.22-0.16,0.19-0.3
					C63.85,84.52,63.71,84.44,63.58,84.47z"/>
				<path class="st3" d="M29.97,63.51c-0.03-0.14-0.16-0.22-0.3-0.19c-0.14,0.03-0.22,0.16-0.19,0.3c0.03,0.13,0.16,0.22,0.3,0.19
					C29.92,63.78,30,63.64,29.97,63.51z"/>
				<path class="st3" d="M30.23,63.14c0.14-0.03,0.22-0.17,0.18-0.3c-0.03-0.14-0.16-0.22-0.3-0.19c-0.14,0.03-0.22,0.16-0.19,0.3
					C29.96,63.09,30.09,63.17,30.23,63.14z"/>
				<path class="st3" d="M25.33,80.13c-0.14,0.03-0.22,0.16-0.19,0.3c0.03,0.14,0.17,0.22,0.3,0.19c0.14-0.03,0.22-0.16,0.18-0.3
					C25.59,80.18,25.46,80.09,25.33,80.13z"/>
				<path class="st3" d="M25.19,80.99c-0.13,0.03-0.22,0.16-0.19,0.3c0.03,0.14,0.17,0.22,0.3,0.19c0.13-0.03,0.22-0.16,0.19-0.3
					C25.45,81.04,25.32,80.96,25.19,80.99z"/>
				<path class="st3" d="M63.1,84.97c-0.14,0.03-0.22,0.16-0.19,0.3c0.03,0.14,0.17,0.22,0.3,0.19c0.14-0.03,0.22-0.17,0.19-0.3
					C63.37,85.02,63.23,84.94,63.1,84.97z"/>
			</g>
			<g>
				<path class="st4" d="M66.38,65.53C66.38,65.52,66.38,65.52,66.38,65.53c-0.01-0.02-0.02-0.04-0.03-0.04c0,0-1.08-0.07-1.25-0.08
					c-0.12-0.25-0.58-1.18-0.58-1.18c-0.01,0-0.02-0.01-0.03-0.01c-0.01,0-0.02,0.01-0.02,0.02c-0.01,0-0.34,0.98-0.45,1.26
					l-1.29,0.27c-0.02,0.01-0.03,0.01-0.03,0.03c0,0.01,0,0.02,0.01,0.03c0,0,0.8,0.61,1.02,0.8c-0.02,0.29-0.15,1.3-0.15,1.3
					c0,0.01,0.01,0.03,0.02,0.03c0.01,0.01,0.02,0.01,0.03,0l1.12-0.75c0.26,0.12,1.23,0.57,1.23,0.57c0,0.01,0.02,0,0.03,0
					c0.02-0.01,0.01-0.02,0.01-0.03l-0.45-1.25l0.82-0.93C66.37,65.54,66.38,65.53,66.38,65.53z"/>
				<path class="st4" d="M61.08,57.48c0,0-1.08-0.07-1.25-0.08c-0.12-0.26-0.58-1.17-0.58-1.17c-0.01,0-0.02-0.02-0.03-0.02
					c-0.01,0-0.01,0.01-0.02,0.02c-0.01,0-0.34,0.99-0.45,1.26l-1.29,0.27c-0.02,0.01-0.03,0.01-0.03,0.03c0,0.01,0,0.02,0.01,0.03
					c0,0,0.8,0.61,1.02,0.8c-0.02,0.29-0.16,1.3-0.16,1.3c0,0.01,0.01,0.03,0.02,0.03c0.01,0.01,0.02,0.01,0.03,0l1.12-0.75
					c0.26,0.12,1.23,0.57,1.23,0.57c0,0.01,0.02,0.01,0.03,0c0.01-0.01,0.01-0.02,0.01-0.03l-0.45-1.25l0.82-0.93
					c0,0,0.01-0.01,0.01-0.02c0-0.01,0-0.01,0-0.01C61.1,57.5,61.09,57.48,61.08,57.48z"/>
				<path class="st4" d="M55.72,49.44c0,0-1.08-0.07-1.25-0.08c-0.12-0.26-0.58-1.18-0.58-1.18c-0.01,0-0.02-0.02-0.03-0.01
					c-0.01,0-0.02,0.01-0.02,0.02c-0.01,0-0.34,0.98-0.45,1.26l-1.29,0.27c-0.02,0.01-0.03,0.01-0.03,0.03c0,0.01,0,0.02,0.01,0.03
					c0,0,0.8,0.61,1.02,0.8c-0.02,0.29-0.16,1.3-0.16,1.3c0,0.01,0.01,0.03,0.02,0.03c0.01,0.01,0.02,0.01,0.03,0l1.12-0.75
					c0.26,0.12,1.23,0.57,1.23,0.57c0.01,0.01,0.02,0.01,0.03,0c0.02-0.01,0.01-0.02,0.01-0.03l-0.45-1.25l0.81-0.93
					c0,0,0.02-0.01,0.01-0.01c0-0.01,0-0.01,0-0.01C55.75,49.46,55.74,49.44,55.72,49.44z"/>
				<path class="st4" d="M51.36,40.68c0,0-1.08-0.07-1.25-0.08c-0.12-0.26-0.58-1.18-0.58-1.18c-0.01,0-0.02-0.02-0.03-0.01
					c-0.01,0-0.02,0.01-0.02,0.02c-0.01,0-0.34,0.98-0.45,1.26l-1.29,0.27c-0.02,0.01-0.03,0.01-0.03,0.03c0,0.01,0,0.02,0.01,0.03
					c0,0,0.8,0.61,1.02,0.8c-0.02,0.29-0.15,1.3-0.15,1.3c0,0.01,0.01,0.03,0.02,0.03c0.01,0.01,0.02,0.01,0.03,0l1.12-0.75
					c0.26,0.12,1.23,0.57,1.23,0.57c0.01,0.01,0.02,0.01,0.03,0c0.02-0.01,0.01-0.02,0.01-0.03l-0.45-1.26l0.82-0.93
					c0,0,0.01-0.01,0.01-0.01c0-0.01,0-0.01,0-0.01C51.38,40.7,51.37,40.68,51.36,40.68z"/>
				<path class="st4" d="M47.81,31.6c0,0,0.01-0.01,0.01-0.01c0-0.01,0-0.01,0-0.01c0-0.01-0.02-0.03-0.03-0.03
					c0,0-1.08-0.07-1.25-0.08c-0.12-0.26-0.58-1.18-0.58-1.18c-0.01,0-0.02-0.02-0.03-0.02c-0.01,0-0.01,0.01-0.02,0.02
					c-0.01,0-0.35,0.99-0.45,1.26l-1.29,0.27c-0.02,0.01-0.03,0.01-0.03,0.03c0,0.01,0,0.02,0.01,0.03c0,0,0.8,0.61,1.02,0.8
					c-0.02,0.29-0.16,1.3-0.16,1.3c0,0.01,0.01,0.03,0.02,0.03c0.01,0.01,0.02,0.01,0.03,0l1.12-0.75c0.26,0.12,1.23,0.57,1.23,0.57
					c0,0.01,0.02,0.01,0.03,0c0.01-0.01,0.01-0.02,0.01-0.03l-0.45-1.26L47.81,31.6z"/>
				<path class="st4" d="M45,24.6c0.01-0.01,0.01-0.02,0.01-0.03l-0.45-1.26l0.82-0.93c0,0,0.01-0.01,0.01-0.01
					c0.01-0.01,0-0.01,0-0.01c-0.01-0.01-0.02-0.03-0.03-0.03c0,0-1.08-0.07-1.25-0.08c-0.12-0.26-0.58-1.17-0.58-1.17
					c-0.01,0-0.02-0.02-0.03-0.01c-0.01,0-0.02,0.01-0.02,0.02c-0.01,0-0.35,0.99-0.45,1.26l-1.29,0.27
					c-0.02,0.01-0.03,0.01-0.03,0.03c0,0.01,0,0.02,0,0.03c0,0,0.8,0.61,1.03,0.8c-0.02,0.29-0.16,1.3-0.16,1.3
					c0,0.01,0.01,0.03,0.02,0.03c0.01,0.01,0.02,0.01,0.03,0l1.12-0.75c0.26,0.12,1.23,0.57,1.23,0.57C44.98,24.6,45,24.6,45,24.6z"
					/>
				<path class="st4" d="M42,15.47c0.01-0.01,0.01-0.02,0.01-0.03l-0.45-1.25l0.82-0.93c0,0,0.01-0.01,0.01-0.01
					c0-0.01,0-0.01,0-0.01c-0.01-0.01-0.02-0.03-0.03-0.03c0,0-1.08-0.07-1.25-0.08c-0.12-0.26-0.58-1.17-0.58-1.17
					c-0.01,0-0.02-0.02-0.03-0.02c-0.01,0-0.01,0.01-0.02,0.02c-0.01,0-0.34,0.98-0.45,1.26l-1.29,0.27
					c-0.02,0.01-0.03,0.01-0.03,0.03c0,0.01,0,0.02,0.01,0.03c0,0,0.8,0.61,1.02,0.8c-0.02,0.29-0.15,1.3-0.15,1.3
					c0,0.01,0.01,0.03,0.02,0.03c0.01,0.01,0.02,0.01,0.03,0l1.12-0.75c0.26,0.12,1.23,0.57,1.23,0.57
					C41.98,15.48,42,15.48,42,15.47z"/>
			</g>
			<g>
				<path class="st0" d="M107.23,66.84c1.04-0.08,2.32,0.32,2.32,1.15c0.36-0.32,1-1.08-0.29-2.12c-2.62-2.13-7.57-2.88-11.82-3.31
					c1.5,0.66,2.98,1.09,4.71,2.34c-2.38,3.19,2.16,6.16,3.9,3.18c-0.97,2.91-6.04,1.59-5.57-2.55
					C98.88,70.32,106.39,73.03,107.23,66.84z"/>
				<path class="st0" d="M114.23,72.65c0.12-0.48-0.25-1.01-0.81-1.16c-0.6-0.16-1.17,0.13-1.3,0.61c0.09,0.01,0.19,0.01,0.32,0.04
					c0.55,0.14,0.92,0.55,0.82,0.91c-0.03,0.1-0.06,0.16-0.13,0.21C113.67,73.33,114.11,73.08,114.23,72.65z"/>
				<path class="st0" d="M138.59,99.52l0.03-0.02c-3.12,0.67-6.18,2.29-10.53,2.63c-10.81,0.85-18.79-2.04-22.71-5.27
					c-0.56-0.46-1.04-0.93-1.43-1.39c-3-3.34-3.26-7.32-2.59-9.89c0.25-0.97,0.35-1.37,2.34-3.54c1.43-1.58,4.09-2.75,5.22-3.43
					c0.62,0.46,1.44,0.77,2.29,0.99c1.43,0.36,2.95,0.46,3.83,0.53c0.11,0.72-0.17,1.44-0.77,2.68c0,0,0.01,0,0.01-0.01
					c0,0,0,0.01,0,0.01c2.4-1,3.33-3.59,3.62-4.71c0.28-1.08,0.52-4.11-2.34-6.68c-0.9-0.83-1.95-4.59-2.86-6
					c-1.07-1.58-11.28-12.42-23.6-8.29c-1.28,0.43-2.49,0.93-3.66,1.51c-0.02,0.01-0.04,0.02-0.06,0.03
					c-1.14,0.56-2.23,1.19-3.27,1.87c-0.04,0.02-0.08,0.05-0.11,0.07c-1.02,0.67-2,1.39-2.94,2.15c-0.05,0.04-0.1,0.07-0.15,0.11
					c-0.93,0.75-1.81,1.54-2.66,2.36c-0.05,0.05-0.1,0.09-0.15,0.14c-0.85,0.81-1.66,1.65-2.45,2.5c-0.05,0.05-0.1,0.1-0.14,0.15
					c-0.8,0.86-1.56,1.73-2.31,2.6c-0.03,0.03-0.06,0.07-0.09,0.1c-1.12,1.31-2.19,2.61-3.23,3.88c-0.18,0.22-0.37,0.45-0.55,0.67
					c-0.32,0.38-0.63,0.76-0.95,1.14c0,0,0,0,0,0c0,0-0.01,0.02-0.01,0.02l2.38,2.56c0.05-0.05,0.37-0.42,0.56-0.64
					c0.81-0.92,1.76-2.03,2.72-3.15c0.1-0.11,0.2-0.23,0.29-0.34c0.21-0.25,0.43-0.49,0.64-0.74c0.21-0.24,0.41-0.48,0.62-0.71
					c0.13-0.15,0.27-0.31,0.4-0.46c0.25-0.29,0.5-0.57,0.74-0.83c0.07-0.08,0.15-0.17,0.22-0.25c0.28-0.32,0.55-0.61,0.8-0.89
					c0.02-0.03,0.05-0.06,0.07-0.08c0.27-0.3,0.53-0.56,0.74-0.79c3.24-3.39,6.98-5.61,10.55-6.89c2.15-0.77,4.23-1.2,6.12-1.35
					c0,0,0,0,0,0c0,0,0,0,0.01,0c-3.39-0.54-5.42-0.39-7.56-0.17c0.29-0.19,0.6-0.37,0.9-0.54c0.16-0.09,0.31-0.19,0.46-0.28
					c6.99-3.82,16.25-3,23.95,4.65c2.8,2.77,2.03,4.07,3,4.95c3.29,3.16,2.82,5.8,1.51,7.31c-0.27-0.37-1.92-0.81-3.53-2.23
					c-0.11-0.05-0.28-0.1-0.52-0.15c-1.61-0.32-6-0.39-9.09,1.43c-1.96,1.32-3.45,3.8-3.99,5.88c-0.78,3.02-2.01,7.91,4.86,15.23
					c0,0,0.11,0.13,0.32,0.34c1.5,1.5,8.44,7.45,23.11,6.38c4.59-0.34,6.26-2.04,9.71-3.75l2.27-1.4
					C138.61,99.51,138.6,99.51,138.59,99.52z"/>
			</g>
		</g>
		<rect x="152.96" y="8.25" class="st4" width="1.1" height="121.77"/>
	</g>
</g>
</svg>
